<svg xmlns="http://www.w3.org/2000/svg" xmlns:xlink="http://www.w3.org/1999/xlink" width="150" zoomAndPan="magnify" viewBox="0 0 112.5 52.499999" height="70" preserveAspectRatio="xMidYMid meet" version="1.0"><defs><g/><clipPath id="56c4720990"><path d="M 26 51 L 29 51 L 29 52.003906 L 26 52.003906 Z M 26 51 " clip-rule="nonzero"/></clipPath><clipPath id="ec3aadc156"><path d="M 28 51 L 30 51 L 30 52.003906 L 28 52.003906 Z M 28 51 " clip-rule="nonzero"/></clipPath><clipPath id="0d25929a67"><path d="M 31 52 L 33 52 L 33 52.003906 L 31 52.003906 Z M 31 52 " clip-rule="nonzero"/></clipPath><clipPath id="1b27f61210"><path d="M 17 2.882812 L 19 2.882812 L 19 4 L 17 4 Z M 17 2.882812 " clip-rule="nonzero"/></clipPath><clipPath id="147e91e4d1"><path d="M 42 33 L 43.472656 33 L 43.472656 34 L 42 34 Z M 42 33 " clip-rule="nonzero"/></clipPath><clipPath id="c5b5ad7b84"><path d="M 42 38 L 43.472656 38 L 43.472656 39 L 42 39 Z M 42 38 " clip-rule="nonzero"/></clipPath></defs><path fill="#1c273f" d="M 12.601562 45.042969 C 12.144531 44.574219 11.347656 43.804688 11.019531 43.597656 C 11 43.585938 10.972656 43.582031 10.953125 43.582031 C 10.960938 43.800781 13.035156 45.808594 13.265625 45.816406 C 13.261719 45.734375 12.902344 45.351562 12.601562 45.042969 " fill-opacity="1" fill-rule="nonzero"/><path fill="#1c273f" d="M 15.296875 46.984375 C 14.816406 46.578125 13.945312 45.910156 13.519531 45.742188 C 13.488281 45.734375 13.4375 45.722656 13.421875 45.734375 C 13.339844 45.8125 13.882812 46.324219 14.445312 46.753906 C 15.164062 47.308594 15.820312 47.710938 15.9375 47.671875 C 15.976562 47.582031 15.554688 47.203125 15.296875 46.984375 " fill-opacity="1" fill-rule="nonzero"/><path fill="#1c273f" d="M 6.328125 36.535156 C 6.316406 36.523438 6.296875 36.511719 6.28125 36.511719 C 6.277344 36.804688 7.664062 39.449219 7.828125 39.460938 C 7.828125 39.34375 7.554688 38.765625 7.386719 38.429688 C 7.097656 37.84375 6.554688 36.8125 6.328125 36.535156 " fill-opacity="1" fill-rule="nonzero"/><path fill="#1c273f" d="M 8.050781 39.371094 C 8.023438 39.359375 7.988281 39.34375 7.96875 39.359375 C 7.789062 39.542969 9.417969 41.945312 9.800781 42.0625 C 9.953125 42.109375 9.789062 41.710938 9.40625 41.09375 C 9.050781 40.519531 8.394531 39.601562 8.050781 39.371094 " fill-opacity="1" fill-rule="nonzero"/><path fill="#1c273f" d="M 11.839844 43.472656 C 11.449219 42.949219 10.6875 42.125 10.230469 41.9375 C 10.195312 41.929688 10.140625 41.917969 10.113281 41.9375 C 9.800781 42.152344 11.632812 44.296875 12.199219 44.375 C 12.410156 44.402344 12.261719 44.035156 11.839844 43.472656 " fill-opacity="1" fill-rule="nonzero"/><path fill="#1c273f" d="M 5.105469 33.449219 C 5.121094 33.507812 5.152344 33.589844 5.1875 33.691406 C 5.15625 33.609375 5.128906 33.527344 5.105469 33.449219 " fill-opacity="1" fill-rule="nonzero"/><path fill="#1c273f" d="M 7.125 37.511719 C 7.339844 37.632812 7.304688 37.144531 7.035156 36.375 C 6.804688 35.707031 6.320312 34.660156 5.976562 34.414062 C 5.953125 34.40625 5.925781 34.390625 5.902344 34.394531 C 5.542969 34.464844 6.625 37.230469 7.125 37.511719 " fill-opacity="1" fill-rule="nonzero"/><path fill="#1c273f" d="M 9.148438 40.226562 C 9.445312 40.324219 9.425781 39.859375 9.097656 39.140625 C 8.816406 38.519531 8.207031 37.550781 7.730469 37.34375 C 7.6875 37.335938 7.632812 37.324219 7.589844 37.347656 C 7.171875 37.609375 8.46875 40.003906 9.148438 40.226562 " fill-opacity="1" fill-rule="nonzero"/><path fill="#1c273f" d="M 11.527344 42.644531 C 11.960938 42.785156 11.996094 42.332031 11.601562 41.628906 C 11.230469 40.964844 10.5 40.160156 9.960938 40.015625 C 9.910156 40.007812 9.839844 40 9.785156 40.03125 C 9.273438 40.300781 10.640625 42.351562 11.527344 42.644531 " fill-opacity="1" fill-rule="nonzero"/><path fill="#1c273f" d="M 4.753906 31.269531 C 4.742188 31.257812 4.726562 31.246094 4.710938 31.242188 C 4.496094 31.378906 5.347656 34.480469 5.625 34.5625 C 5.734375 34.492188 5.53125 33.621094 5.46875 33.355469 C 5.308594 32.703125 4.976562 31.558594 4.753906 31.269531 " fill-opacity="1" fill-rule="nonzero"/><path fill="#1c273f" d="M 6.9375 35.328125 C 7.289062 35.519531 7.417969 34.960938 7.222656 34.082031 C 7.066406 33.382812 6.640625 32.300781 6.167969 32.085938 C 6.136719 32.082031 6.09375 32.070312 6.0625 32.078125 C 5.460938 32.210938 6.1875 34.914062 6.9375 35.328125 " fill-opacity="1" fill-rule="nonzero"/><path fill="#1c273f" d="M 8.914062 38.109375 C 9.414062 38.363281 9.613281 37.8125 9.335938 36.933594 C 9.125 36.265625 8.558594 35.25 7.949219 35.078125 C 7.90625 35.074219 7.851562 35.066406 7.8125 35.078125 C 7.097656 35.246094 7.960938 37.625 8.914062 38.109375 " fill-opacity="1" fill-rule="nonzero"/><path fill="#1c273f" d="M 11.304688 40.621094 C 11.964844 40.921875 12.242188 40.394531 11.886719 39.515625 C 11.632812 38.890625 10.957031 37.957031 10.238281 37.835938 C 10.171875 37.832031 10.082031 37.832031 10.003906 37.867188 C 9.332031 38.183594 10.257812 40.136719 11.304688 40.621094 " fill-opacity="1" fill-rule="nonzero"/><path fill="#1c273f" d="M 5.398438 32.273438 C 5.648438 32.492188 5.761719 31.941406 5.652344 31.042969 C 5.566406 30.34375 5.296875 29.246094 4.96875 29 C 4.945312 28.992188 4.914062 28.976562 4.890625 28.984375 C 4.445312 29.0625 4.867188 31.800781 5.398438 32.273438 " fill-opacity="1" fill-rule="nonzero"/><path fill="#1c273f" d="M 7.957031 31.605469 C 7.878906 30.898438 7.503906 29.828125 6.914062 29.652344 C 6.871094 29.648438 6.816406 29.644531 6.773438 29.65625 C 6.042969 29.824219 6.351562 32.21875 7.183594 32.855469 C 7.695312 33.246094 8.070312 32.636719 7.957031 31.605469 " fill-opacity="1" fill-rule="nonzero"/><path fill="#1c273f" d="M 10.078125 34.46875 C 9.9375 33.761719 9.414062 32.710938 8.703125 32.582031 C 8.652344 32.582031 8.582031 32.578125 8.53125 32.59375 C 7.703125 32.804688 8.140625 35.007812 9.148438 35.695312 C 9.832031 36.160156 10.292969 35.554688 10.078125 34.46875 " fill-opacity="1" fill-rule="nonzero"/><path fill="#1c273f" d="M 12.621094 37.128906 C 12.433594 36.457031 11.800781 35.46875 10.988281 35.386719 C 10.933594 35.390625 10.855469 35.394531 10.796875 35.410156 C 9.890625 35.667969 10.484375 37.753906 11.636719 38.347656 C 12.417969 38.75 12.90625 38.144531 12.621094 37.128906 " fill-opacity="1" fill-rule="nonzero"/><path fill="#1c273f" d="M 5.742188 29.886719 C 6.097656 30.1875 6.390625 29.609375 6.378906 28.644531 C 6.367188 27.941406 6.15625 26.859375 5.714844 26.652344 C 5.679688 26.644531 5.636719 26.636719 5.605469 26.644531 C 4.976562 26.777344 5.085938 29.320312 5.742188 29.886719 " fill-opacity="1" fill-rule="nonzero"/><path fill="#1c273f" d="M 9.171875 29.019531 C 9.160156 28.3125 8.835938 27.257812 8.15625 27.128906 C 8.128906 27.128906 8.09375 27.125 8.070312 27.128906 C 7.167969 27.191406 7.066406 29.351562 7.925781 30.207031 C 8.542969 30.824219 9.195312 30.203125 9.171875 29.019531 " fill-opacity="1" fill-rule="nonzero"/><path fill="#1c273f" d="M 11.246094 31.796875 C 11.171875 31.085938 10.707031 30.046875 9.914062 29.960938 C 9.886719 29.960938 9.847656 29.960938 9.816406 29.964844 C 8.796875 30.085938 8.878906 32.261719 9.933594 33.070312 C 10.6875 33.644531 11.375 32.980469 11.246094 31.796875 " fill-opacity="1" fill-rule="nonzero"/><path fill="#1c273f" d="M 13.757812 34.472656 C 13.625 33.761719 13.042969 32.742188 12.15625 32.699219 C 12.121094 32.703125 12.078125 32.703125 12.046875 32.710938 C 10.996094 32.875 11.148438 34.894531 12.273438 35.710938 C 13.179688 36.375 13.984375 35.699219 13.757812 34.472656 " fill-opacity="1" fill-rule="nonzero"/><path fill="#1c273f" d="M 6.527344 27.34375 C 6.972656 27.859375 7.515625 27.261719 7.601562 26.160156 C 7.652344 25.460938 7.484375 24.402344 6.9375 24.238281 C 6.917969 24.234375 6.890625 24.230469 6.871094 24.230469 C 6.113281 24.246094 5.855469 26.570312 6.527344 27.34375 " fill-opacity="1" fill-rule="nonzero"/><path fill="#1c273f" d="M 9.160156 27.578125 C 9.796875 28.296875 10.652344 27.648438 10.714844 26.398438 C 10.75 25.695312 10.46875 24.664062 9.734375 24.578125 C 8.632812 24.625 8.402344 26.722656 9.160156 27.578125 " fill-opacity="1" fill-rule="nonzero"/><path fill="#1c273f" d="M 12.742188 29.082031 C 12.71875 28.371094 12.296875 27.34375 11.453125 27.300781 C 10.214844 27.410156 10.160156 29.53125 11.101562 30.351562 C 11.886719 31.035156 12.789062 30.335938 12.742188 29.082031 " fill-opacity="1" fill-rule="nonzero"/><path fill="#1c273f" d="M 13.378906 32.9375 C 14.316406 33.742188 15.359375 33.027344 15.207031 31.679688 C 15.125 30.964844 14.585938 29.953125 13.644531 29.949219 C 12.359375 30.109375 12.367188 32.070312 13.378906 32.9375 " fill-opacity="1" fill-rule="nonzero"/><path fill="#1c273f" d="M 9.183594 23.65625 C 9.285156 22.964844 9.148438 21.933594 8.539062 21.816406 C 7.5625 21.800781 7.164062 24.046875 7.789062 24.828125 C 8.28125 25.4375 9.011719 24.824219 9.183594 23.65625 " fill-opacity="1" fill-rule="nonzero"/><path fill="#1c273f" d="M 17.136719 44.863281 C 17.90625 45.058594 18.210938 44.574219 17.789062 43.828125 C 17.492188 43.300781 16.691406 42.542969 15.847656 42.515625 C 15.734375 42.523438 15.613281 42.53125 15.496094 42.613281 C 14.84375 43.066406 15.933594 44.5625 17.136719 44.863281 " fill-opacity="1" fill-rule="nonzero"/><path fill="#1c273f" d="M 18.539062 41.644531 C 18.300781 41.0625 17.542969 40.246094 16.601562 40.25 C 16.515625 40.261719 16.398438 40.273438 16.285156 40.328125 C 15.425781 40.734375 16.101562 42.289062 17.347656 42.777344 C 18.308594 43.152344 18.921875 42.570312 18.539062 41.644531 " fill-opacity="1" fill-rule="nonzero"/><path fill="#1c273f" d="M 19.675781 39.175781 C 19.488281 38.542969 18.765625 37.667969 17.742188 37.710938 C 17.707031 37.714844 17.65625 37.71875 17.621094 37.726562 C 16.496094 37.964844 16.703125 39.628906 17.945312 40.34375 C 19.046875 40.980469 20.015625 40.324219 19.675781 39.175781 " fill-opacity="1" fill-rule="nonzero"/><path fill="#1c273f" d="M 19.203125 34.902344 C 19.164062 34.910156 19.109375 34.917969 19.070312 34.925781 C 17.859375 35.21875 17.925781 37.023438 19.179688 37.765625 C 20.28125 38.417969 21.394531 37.660156 21.128906 36.4375 C 20.980469 35.753906 20.285156 34.824219 19.203125 34.902344 " fill-opacity="1" fill-rule="nonzero"/><path fill="#1c273f" d="M 17.320312 46.625 C 17.847656 46.691406 17.914062 46.296875 17.46875 45.71875 C 17.105469 45.25 16.261719 44.554688 15.527344 44.492188 C 15.429688 44.496094 15.328125 44.496094 15.242188 44.5625 C 14.722656 44.964844 16.257812 46.484375 17.320312 46.625 " fill-opacity="1" fill-rule="nonzero"/><path fill="#1c273f" d="M 17.898438 48.066406 C 18.191406 48.058594 18.078125 47.757812 17.613281 47.316406 C 17.210938 46.929688 16.328125 46.28125 15.679688 46.183594 C 15.597656 46.179688 15.511719 46.175781 15.460938 46.226562 C 15.121094 46.554688 17.144531 48.085938 17.898438 48.066406 " fill-opacity="1" fill-rule="nonzero"/><path fill="#1c273f" d="M 14.34375 40.734375 C 15.335938 41.222656 15.980469 40.578125 15.601562 39.488281 C 15.363281 38.804688 14.59375 37.824219 13.625 37.78125 C 13.558594 37.789062 13.464844 37.796875 13.398438 37.816406 C 12.382812 38.121094 13.015625 40.085938 14.34375 40.734375 " fill-opacity="1" fill-rule="nonzero"/><path fill="#1c273f" d="M 14.164062 42.960938 C 14.945312 43.222656 15.269531 42.667969 14.84375 41.789062 C 14.539062 41.164062 13.722656 40.242188 12.859375 40.160156 C 12.78125 40.164062 12.671875 40.167969 12.578125 40.210938 C 11.757812 40.59375 12.871094 42.519531 14.164062 42.960938 " fill-opacity="1" fill-rule="nonzero"/><path fill="#1c273f" d="M 5.460938 25.65625 C 5.527344 24.90625 5.46875 23.738281 5.140625 23.488281 C 5.117188 23.476562 5.082031 23.464844 5.054688 23.46875 C 4.503906 23.566406 4.347656 26.496094 4.867188 26.992188 C 5.113281 27.226562 5.378906 26.628906 5.460938 25.65625 " fill-opacity="1" fill-rule="nonzero"/><path fill="#1c273f" d="M 4.367188 25.730469 C 4.351562 25.71875 4.332031 25.703125 4.3125 25.707031 C 3.980469 25.742188 4.132812 28.929688 4.484375 29.292969 C 4.632812 29.449219 4.730469 28.882812 4.710938 27.972656 C 4.695312 27.21875 4.578125 26.023438 4.367188 25.730469 " fill-opacity="1" fill-rule="nonzero"/><path fill="#1c273f" d="M 16.628906 36.90625 C 16.464844 36.226562 15.792969 35.273438 14.824219 35.273438 C 14.753906 35.28125 14.660156 35.292969 14.59375 35.316406 C 13.574219 35.652344 13.882812 37.457031 15.078125 38.152344 C 16.074219 38.734375 16.914062 38.058594 16.628906 36.90625 " fill-opacity="1" fill-rule="nonzero"/><path fill="#1c273f" d="M 16.1875 35.390625 C 17.230469 36.128906 18.316406 35.378906 18.089844 34.070312 C 17.964844 33.355469 17.332031 32.367188 16.308594 32.402344 C 16.269531 32.410156 16.21875 32.414062 16.179688 32.421875 C 15.019531 32.675781 15.023438 34.5625 16.1875 35.390625 " fill-opacity="1" fill-rule="nonzero"/><path fill="#1c273f" d="M 14.3125 44.761719 C 14.8125 44.867188 14.871094 44.441406 14.441406 43.796875 C 14.09375 43.269531 13.296875 42.484375 12.609375 42.371094 C 12.519531 42.371094 12.421875 42.367188 12.34375 42.429688 C 11.878906 42.816406 13.347656 44.558594 14.3125 44.761719 " fill-opacity="1" fill-rule="nonzero"/><path fill="#1c273f" d="M 14.917969 46.359375 C 15.179688 46.367188 15.050781 46.027344 14.609375 45.527344 C 14.191406 45.054688 13.351562 44.328125 12.792969 44.1875 C 12.722656 44.179688 12.652344 44.171875 12.613281 44.21875 C 12.347656 44.554688 14.265625 46.332031 14.917969 46.359375 " fill-opacity="1" fill-rule="nonzero"/><path fill="#1c273f" d="M 4.292969 22.722656 C 4.292969 22.71875 4.289062 22.707031 4.285156 22.703125 C 4.277344 22.699219 4.269531 22.699219 4.261719 22.699219 C 4.089844 22.992188 3.921875 25.648438 4.054688 25.96875 C 4.0625 25.96875 4.070312 25.96875 4.078125 25.96875 C 4.15625 25.832031 4.21875 25.167969 4.25 24.785156 C 4.300781 24.144531 4.359375 23.015625 4.292969 22.722656 " fill-opacity="1" fill-rule="nonzero"/><path fill="#1c273f" d="M 4.996094 22.585938 C 5.121094 21.910156 5.230469 20.847656 5.066406 20.601562 C 5.054688 20.589844 5.03125 20.578125 5.015625 20.578125 C 4.660156 20.617188 4.199219 23.457031 4.5 23.777344 C 4.628906 23.914062 4.839844 23.402344 4.996094 22.585938 " fill-opacity="1" fill-rule="nonzero"/><path fill="#1c273f" d="M 6.203125 20.339844 C 6.394531 19.675781 6.550781 18.648438 6.296875 18.4375 C 6.285156 18.433594 6.273438 18.425781 6.261719 18.425781 C 5.769531 18.34375 5.039062 20.890625 5.382812 21.488281 C 5.5625 21.796875 5.9375 21.269531 6.203125 20.339844 " fill-opacity="1" fill-rule="nonzero"/><path fill="#1c273f" d="M 6.714844 19.1875 C 6.925781 19.574219 7.449219 19.035156 7.8125 18.0625 C 8.054688 17.414062 8.246094 16.425781 7.917969 16.257812 C 7.308594 16.148438 6.339844 18.503906 6.714844 19.1875 " fill-opacity="1" fill-rule="nonzero"/><path fill="#1c273f" d="M 6.625 23.210938 C 6.75 22.527344 6.742188 21.476562 6.347656 21.285156 C 6.332031 21.28125 6.3125 21.277344 6.296875 21.277344 C 5.660156 21.242188 5.191406 23.683594 5.699219 24.382812 C 5.996094 24.789062 6.445312 24.21875 6.625 23.210938 " fill-opacity="1" fill-rule="nonzero"/><path fill="#1c273f" d="M 7.015625 21.941406 C 7.351562 22.4375 7.976562 21.855469 8.25 20.785156 C 8.421875 20.113281 8.453125 19.101562 7.976562 18.953125 C 7.128906 18.882812 6.535156 21.238281 7.015625 21.941406 " fill-opacity="1" fill-rule="nonzero"/><path fill="#1c273f" d="M 12.625 23.558594 C 12.695312 22.863281 12.449219 21.863281 11.675781 21.824219 C 10.59375 21.921875 10.171875 23.851562 10.816406 24.710938 C 11.441406 25.542969 12.488281 24.875 12.625 23.558594 " fill-opacity="1" fill-rule="nonzero"/><path fill="#1c273f" d="M 14.605469 26.125 C 14.617188 25.417969 14.234375 24.417969 13.351562 24.414062 C 12.109375 24.570312 11.851562 26.515625 12.695312 27.378906 C 13.480469 28.179688 14.585938 27.453125 14.605469 26.125 " fill-opacity="1" fill-rule="nonzero"/><path fill="#1c273f" d="M 15.023438 29.96875 C 15.945312 30.734375 17.101562 29.957031 17.023438 28.628906 C 16.980469 27.914062 16.476562 26.921875 15.496094 26.957031 C 14.144531 27.167969 14.023438 29.140625 15.023438 29.96875 " fill-opacity="1" fill-rule="nonzero"/><path fill="#1c273f" d="M 18.054688 29.425781 C 16.707031 29.675781 16.613281 31.519531 17.605469 32.371094 C 18.636719 33.257812 19.96875 32.453125 19.800781 31.050781 C 19.714844 30.332031 19.117188 29.351562 18.054688 29.425781 " fill-opacity="1" fill-rule="nonzero"/><path fill="#1c273f" d="M 10.523438 19.207031 C 9.527344 19.257812 8.960938 21.300781 9.507812 22.101562 C 9.992188 22.804688 10.886719 22.171875 11.132812 20.953125 C 11.273438 20.273438 11.171875 19.285156 10.523438 19.207031 " fill-opacity="1" fill-rule="nonzero"/><path fill="#1c273f" d="M 8.703125 19.457031 C 9.050781 20.035156 9.824219 19.445312 10.179688 18.332031 C 10.386719 17.675781 10.445312 16.707031 9.921875 16.597656 C 9.023438 16.597656 8.261719 18.722656 8.703125 19.457031 " fill-opacity="1" fill-rule="nonzero"/><path fill="#1c273f" d="M 11.304688 32.941406 L 11.296875 32.960938 Z M 11.304688 32.941406 " fill-opacity="1" fill-rule="nonzero"/><path fill="#1c273f" d="M 11.96875 35.640625 L 11.988281 35.660156 L 11.972656 35.640625 C 11.972656 35.640625 11.96875 35.640625 11.96875 35.640625 " fill-opacity="1" fill-rule="nonzero"/><path fill="#1c273f" d="M 20.363281 44.472656 C 21.351562 44.859375 22.039062 44.328125 21.648438 43.472656 C 21.417969 42.964844 20.683594 42.273438 19.769531 42.316406 C 19.671875 42.328125 19.554688 42.347656 19.441406 42.40625 C 18.675781 42.789062 19.226562 44.027344 20.363281 44.472656 " fill-opacity="1" fill-rule="nonzero"/><path fill="#1c273f" d="M 20.214844 46.464844 C 20.96875 46.609375 21.277344 46.160156 20.863281 45.519531 C 20.597656 45.105469 19.855469 44.453125 19.003906 44.464844 C 18.945312 44.46875 18.773438 44.480469 18.640625 44.574219 C 18.039062 45.007812 19.070312 46.242188 20.214844 46.464844 " fill-opacity="1" fill-rule="nonzero"/><path fill="#1c273f" d="M 16.492188 23.257812 C 16.527344 22.59375 16.195312 21.671875 15.339844 21.695312 C 14.292969 21.804688 13.78125 23.488281 14.519531 24.378906 C 15.222656 25.230469 16.421875 24.550781 16.492188 23.257812 " fill-opacity="1" fill-rule="nonzero"/><path fill="#1c273f" d="M 13.695312 19.242188 C 12.664062 19.378906 12.183594 21.125 12.75 21.902344 C 13.304688 22.664062 14.347656 22.066406 14.546875 20.863281 C 14.660156 20.203125 14.46875 19.261719 13.695312 19.242188 " fill-opacity="1" fill-rule="nonzero"/><path fill="#1c273f" d="M 4.734375 20.574219 C 4.851562 20.511719 5.058594 19.871094 5.171875 19.492188 C 5.214844 19.34375 5.605469 18.03125 5.546875 17.710938 C 5.542969 17.699219 5.53125 17.6875 5.523438 17.683594 C 5.515625 17.683594 5.507812 17.6875 5.503906 17.691406 C 5.238281 17.871094 4.53125 20.511719 4.734375 20.574219 " fill-opacity="1" fill-rule="nonzero"/><path fill="#1c273f" d="M 22.761719 41.089844 C 22.578125 40.570312 21.9375 39.828125 20.929688 39.90625 C 20.855469 39.921875 20.753906 39.941406 20.679688 39.964844 C 19.738281 40.300781 20.015625 41.660156 21.132812 42.203125 C 22.097656 42.667969 23.136719 42.152344 22.761719 41.089844 " fill-opacity="1" fill-rule="nonzero"/><path fill="#1c273f" d="M 18.691406 49.136719 C 18.832031 49.113281 18.519531 48.847656 18.179688 48.605469 C 17.792969 48.332031 16.929688 47.78125 16.417969 47.65625 C 16.359375 47.644531 16.304688 47.636719 16.292969 47.671875 C 16.195312 47.914062 18.304688 49.199219 18.691406 49.136719 " fill-opacity="1" fill-rule="nonzero"/><path fill="#1c273f" d="M 20.328125 48.0625 C 20.859375 48.097656 20.929688 47.773438 20.5 47.285156 C 20.21875 46.96875 19.472656 46.359375 18.675781 46.335938 C 18.570312 46.34375 18.46875 46.351562 18.386719 46.414062 C 17.898438 46.777344 19.335938 47.992188 20.328125 48.0625 " fill-opacity="1" fill-rule="nonzero"/><path fill="#1c273f" d="M 11.5 19.398438 C 11.886719 19.96875 12.789062 19.53125 13.085938 18.386719 C 13.195312 17.96875 13.316406 16.867188 12.574219 16.816406 C 11.628906 16.902344 11.027344 18.703125 11.5 19.398438 " fill-opacity="1" fill-rule="nonzero"/><path fill="#1c273f" d="M 6.378906 17.414062 C 6.578125 16.925781 6.917969 15.945312 6.785156 15.714844 C 6.78125 15.710938 6.773438 15.703125 6.765625 15.699219 C 6.460938 15.597656 5.5 18 5.679688 18.410156 C 5.769531 18.609375 6.0625 18.191406 6.378906 17.414062 " fill-opacity="1" fill-rule="nonzero"/><path fill="#1c273f" d="M 17.457031 24.148438 C 16.183594 24.382812 16.066406 26.089844 16.773438 26.824219 C 17.53125 27.613281 18.867188 27.058594 18.835938 25.65625 C 18.8125 24.738281 18.195312 24.0625 17.457031 24.148438 " fill-opacity="1" fill-rule="nonzero"/><path fill="#1c273f" d="M 22.710938 33.382812 C 22.601562 32.753906 22.046875 31.863281 20.96875 31.96875 C 19.691406 32.171875 19.667969 33.933594 20.660156 34.667969 C 21.605469 35.367188 22.949219 34.742188 22.710938 33.382812 " fill-opacity="1" fill-rule="nonzero"/><path fill="#1c273f" d="M 22.273438 39.601562 C 23.316406 40.253906 24.46875 39.578125 24.203125 38.476562 C 24.011719 37.699219 23.175781 37.117188 22.40625 37.230469 C 22.367188 37.238281 22.3125 37.246094 22.277344 37.257812 C 21.21875 37.539062 21.214844 38.941406 22.273438 39.601562 " fill-opacity="1" fill-rule="nonzero"/><path fill="#1c273f" d="M 9.824219 14.175781 C 9.160156 14.132812 8.253906 16.109375 8.503906 16.6875 C 8.6875 17.105469 9.289062 16.640625 9.699219 15.761719 C 9.949219 15.222656 10.203125 14.316406 9.824219 14.175781 " fill-opacity="1" fill-rule="nonzero"/><path fill="#1c273f" d="M 20.835938 49.339844 C 21.09375 49.320312 21.007812 49.078125 20.625 48.757812 C 20.101562 48.320312 19.257812 47.917969 18.820312 47.902344 C 18.738281 47.902344 18.664062 47.90625 18.613281 47.949219 C 18.285156 48.257812 20.113281 49.402344 20.835938 49.339844 " fill-opacity="1" fill-rule="nonzero"/><path fill="#1c273f" d="M 11.988281 14.402344 C 11.242188 14.453125 10.402344 16.082031 10.742188 16.824219 C 11.011719 17.417969 11.828125 16.867188 12.195312 15.839844 C 12.398438 15.285156 12.464844 14.46875 11.988281 14.402344 " fill-opacity="1" fill-rule="nonzero"/><path fill="#1c273f" d="M 7.078125 16.246094 C 7.175781 16.503906 7.609375 16.042969 8.007812 15.253906 C 8.269531 14.730469 8.582031 13.878906 8.410156 13.71875 C 8.410156 13.71875 8.40625 13.714844 8.40625 13.714844 C 8.007812 13.5625 6.878906 15.710938 7.078125 16.246094 " fill-opacity="1" fill-rule="nonzero"/><path fill="#1c273f" d="M 19.980469 26.554688 C 18.835938 26.734375 18.511719 28.402344 19.460938 29.21875 C 20.390625 30.019531 21.652344 29.261719 21.535156 27.972656 C 21.480469 27.328125 20.957031 26.464844 19.980469 26.554688 " fill-opacity="1" fill-rule="nonzero"/><path fill="#1c273f" d="M 24.734375 45.132812 C 24.492188 44.554688 23.644531 44.085938 22.984375 44.164062 C 22.925781 44.175781 22.84375 44.191406 22.789062 44.210938 C 22.058594 44.46875 22.238281 45.453125 23.359375 45.925781 C 24.355469 46.347656 25.019531 45.820312 24.734375 45.132812 " fill-opacity="1" fill-rule="nonzero"/><path fill="#1c273f" d="M 23.929688 47.023438 C 23.679688 46.644531 22.941406 46.136719 22.199219 46.167969 C 22.066406 46.183594 21.957031 46.21875 21.875 46.28125 C 21.351562 46.660156 22.152344 47.582031 23.195312 47.800781 C 23.992188 47.96875 24.25 47.511719 23.929688 47.023438 " fill-opacity="1" fill-rule="nonzero"/><path fill="#1c273f" d="M 17.378906 18.996094 C 16.515625 19.109375 15.890625 20.574219 16.578125 21.410156 C 17.210938 22.183594 18.3125 21.578125 18.421875 20.394531 C 18.480469 19.78125 18.148438 18.953125 17.378906 18.996094 " fill-opacity="1" fill-rule="nonzero"/><path fill="#1c273f" d="M 16.542969 18.074219 C 16.679688 17.304688 16.308594 16.644531 15.773438 16.691406 C 14.871094 16.839844 14.300781 18.34375 14.863281 19.085938 C 15.402344 19.796875 16.367188 19.070312 16.542969 18.074219 " fill-opacity="1" fill-rule="nonzero"/><path fill="#1c273f" d="M 7.089844 14.625 C 7.199219 14.417969 7.757812 13.375 7.738281 13.113281 C 7.734375 13.109375 7.730469 13.101562 7.726562 13.097656 C 7.554688 12.96875 6.382812 15.183594 6.476562 15.46875 C 6.511719 15.582031 6.746094 15.257812 7.089844 14.625 " fill-opacity="1" fill-rule="nonzero"/><path fill="#1c273f" d="M 13.617188 16.679688 C 13.960938 17.273438 14.871094 16.824219 15.152344 15.703125 C 15.28125 15.199219 15.261719 14.4375 14.683594 14.425781 C 13.84375 14.539062 13.25 16.039062 13.617188 16.679688 " fill-opacity="1" fill-rule="nonzero"/><path fill="#1c273f" d="M 19.460938 21.320312 C 18.453125 21.476562 18.046875 23.042969 18.824219 23.78125 C 19.578125 24.5 20.75 23.785156 20.722656 22.625 C 20.707031 22.074219 20.355469 21.234375 19.460938 21.320312 " fill-opacity="1" fill-rule="nonzero"/><path fill="#1c273f" d="M 25.835938 42.828125 C 25.59375 42.207031 24.847656 41.785156 24.167969 41.886719 C 24.101562 41.898438 24.011719 41.917969 23.945312 41.941406 C 23.09375 42.246094 23.28125 43.351562 24.265625 43.820312 C 25.25 44.289062 26.175781 43.703125 25.835938 42.828125 " fill-opacity="1" fill-rule="nonzero"/><path fill="#1c273f" d="M 23.539062 48.621094 C 23.117188 48.191406 22.367188 47.863281 21.863281 47.890625 C 21.777344 47.898438 21.636719 47.914062 21.558594 47.996094 C 21.222656 48.347656 22.472656 49.234375 23.34375 49.257812 C 23.828125 49.269531 23.910156 49.003906 23.539062 48.621094 " fill-opacity="1" fill-rule="nonzero"/><path fill="#1c273f" d="M 11.9375 12.09375 C 11.382812 12.042969 10.351562 13.6875 10.558594 14.292969 C 10.703125 14.71875 11.34375 14.371094 11.824219 13.421875 C 12.035156 13 12.332031 12.183594 11.9375 12.09375 " fill-opacity="1" fill-rule="nonzero"/><path fill="#1c273f" d="M 21.636719 50.3125 C 21.757812 50.285156 21.574219 50.121094 21.140625 49.875 C 21.035156 49.816406 20.085938 49.277344 19.484375 49.191406 C 19.421875 49.1875 19.363281 49.183594 19.34375 49.214844 C 19.207031 49.417969 21.242188 50.390625 21.636719 50.3125 " fill-opacity="1" fill-rule="nonzero"/><path fill="#1c273f" d="M 27.296875 40.355469 C 27.175781 39.871094 26.640625 39.199219 25.652344 39.328125 C 25.652344 39.328125 25.652344 39.328125 25.648438 39.328125 C 25.496094 39.363281 25.183594 39.4375 24.96875 39.722656 C 24.460938 40.410156 25.148438 41.726562 26.480469 41.550781 C 26.480469 41.550781 26.480469 41.550781 26.484375 41.550781 C 27.503906 41.316406 27.320312 40.453125 27.296875 40.355469 " fill-opacity="1" fill-rule="nonzero"/><path fill="#1c273f" d="M 25.832031 35.601562 C 25.734375 35.046875 25.183594 34.214844 24.121094 34.34375 C 22.882812 34.632812 22.890625 36.144531 23.855469 36.777344 C 24.847656 37.425781 26.027344 36.722656 25.832031 35.601562 " fill-opacity="1" fill-rule="nonzero"/><path fill="#1c273f" d="M 22.859375 28.941406 C 21.714844 29.152344 21.472656 30.792969 22.476562 31.519531 C 23.441406 32.21875 24.652344 31.433594 24.472656 30.222656 C 24.367188 29.519531 23.765625 28.828125 22.859375 28.941406 " fill-opacity="1" fill-rule="nonzero"/><path fill="#1c273f" d="M 5.867188 16.542969 C 6.035156 16.144531 6.429688 15.1875 6.476562 14.949219 C 6.476562 14.945312 6.476562 14.9375 6.480469 14.929688 C 6.472656 14.929688 6.46875 14.929688 6.464844 14.929688 C 6.300781 15.132812 5.375 17.3125 5.453125 17.449219 C 5.476562 17.414062 5.535156 17.335938 5.867188 16.542969 " fill-opacity="1" fill-rule="nonzero"/><path fill="#1c273f" d="M 19.230469 49.601562 C 18.140625 49.035156 17.828125 48.898438 17.667969 48.839844 C 17.652344 48.835938 17.628906 48.832031 17.613281 48.828125 C 17.613281 48.832031 17.613281 48.835938 17.609375 48.839844 C 17.835938 49.054688 19.742188 49.972656 19.96875 50.007812 C 19.957031 49.988281 19.953125 49.972656 19.230469 49.601562 " fill-opacity="1" fill-rule="nonzero"/><path fill="#1c273f" d="M 8.859375 14.015625 C 8.941406 14.296875 9.386719 14.019531 9.894531 13.167969 C 9.921875 13.117188 10.609375 11.964844 10.3125 11.785156 C 9.804688 11.703125 8.730469 13.5625 8.859375 14.015625 " fill-opacity="1" fill-rule="nonzero"/><path fill="#1c273f" d="M 23.738281 50.371094 C 23.753906 50.371094 23.777344 50.371094 23.796875 50.367188 C 24.039062 50.339844 23.972656 50.164062 23.628906 49.914062 C 23.136719 49.566406 22.402344 49.285156 21.988281 49.289062 C 21.914062 49.296875 21.835938 49.300781 21.789062 49.339844 C 21.523438 49.558594 22.867188 50.355469 23.738281 50.371094 " fill-opacity="1" fill-rule="nonzero"/><path fill="#1c273f" d="M 14.140625 12.195312 C 14.054688 12.203125 13.929688 12.21875 13.71875 12.390625 C 12.957031 13.007812 12.53125 14.46875 13.25 14.523438 C 13.84375 14.460938 14.234375 13.582031 14.277344 13.480469 C 14.539062 12.859375 14.546875 12.195312 14.140625 12.195312 " fill-opacity="1" fill-rule="nonzero"/><path fill="#1c273f" d="M 9.363281 11.277344 C 9.171875 11.234375 7.75 13.113281 7.941406 13.5 C 8.105469 13.597656 8.679688 12.726562 8.746094 12.628906 C 8.949219 12.3125 9.464844 11.460938 9.378906 11.289062 C 9.375 11.285156 9.367188 11.28125 9.363281 11.277344 " fill-opacity="1" fill-rule="nonzero"/><path fill="#1c273f" d="M 21.96875 23.617188 C 20.742188 23.902344 20.71875 25.4375 21.445312 26.050781 C 22.199219 26.6875 23.460938 26.113281 23.378906 24.890625 C 23.320312 24.0625 22.691406 23.492188 21.96875 23.617188 " fill-opacity="1" fill-rule="nonzero"/><path fill="#1c273f" d="M 24.820312 25.871094 C 23.800781 26.136719 23.507812 27.441406 24.304688 28.160156 C 25.222656 28.988281 26.40625 28.164062 26.3125 27.085938 C 26.261719 26.496094 25.714844 25.746094 24.820312 25.871094 " fill-opacity="1" fill-rule="nonzero"/><path fill="#1c273f" d="M 27.601562 32.46875 C 27.5 31.695312 26.710938 31.101562 25.984375 31.246094 C 24.9375 31.519531 24.6875 32.878906 25.550781 33.59375 C 26.574219 34.433594 27.753906 33.585938 27.601562 32.46875 " fill-opacity="1" fill-rule="nonzero"/><path fill="#1c273f" d="M 28.964844 37.542969 C 28.835938 36.875 28.0625 36.371094 27.375 36.507812 C 26.347656 36.777344 26.148438 37.988281 27.03125 38.601562 C 28.042969 39.300781 29.148438 38.515625 28.964844 37.542969 " fill-opacity="1" fill-rule="nonzero"/><path fill="#1c273f" d="M 10.941406 11.84375 C 10.992188 12.207031 11.578125 11.730469 12.023438 11.089844 C 12.34375 10.632812 12.671875 9.945312 12.449219 9.859375 C 11.980469 9.84375 10.867188 11.308594 10.941406 11.84375 " fill-opacity="1" fill-rule="nonzero"/><path fill="#1c273f" d="M 27.675781 46.511719 C 27.488281 46.046875 26.734375 45.675781 26.160156 45.761719 C 26.105469 45.769531 26.035156 45.785156 25.984375 45.804688 C 25.371094 46.027344 25.453125 46.78125 26.339844 47.167969 C 27.242188 47.558594 27.917969 47.105469 27.675781 46.511719 " fill-opacity="1" fill-rule="nonzero"/><path fill="#1c273f" d="M 20.632812 50.175781 C 20.617188 50.175781 20.597656 50.171875 20.582031 50.171875 C 20.578125 50.175781 20.574219 50.179688 20.574219 50.1875 C 20.765625 50.375 22.449219 50.960938 22.828125 51.019531 C 22.832031 51.015625 22.839844 51.011719 22.84375 51.007812 C 22.777344 50.96875 22.554688 50.871094 22.179688 50.722656 C 22.058594 50.675781 21.011719 50.261719 20.632812 50.175781 " fill-opacity="1" fill-rule="nonzero"/><path fill="#1c273f" d="M 12.8125 11.992188 C 12.9375 12.386719 13.558594 11.976562 13.996094 11.210938 C 14.230469 10.792969 14.484375 10.109375 14.144531 10.050781 C 13.589844 10.089844 12.644531 11.46875 12.8125 11.992188 " fill-opacity="1" fill-rule="nonzero"/><path fill="#1c273f" d="M 24.582031 51.167969 C 24.675781 51.117188 24.277344 50.925781 24.152344 50.867188 C 23.671875 50.644531 22.941406 50.398438 22.601562 50.382812 C 22.546875 50.382812 22.492188 50.382812 22.476562 50.410156 C 22.355469 50.609375 24.324219 51.316406 24.582031 51.167969 " fill-opacity="1" fill-rule="nonzero"/><path fill="#1c273f" d="M 19.386719 16.351562 C 18.535156 16.539062 18.113281 17.84375 18.691406 18.496094 C 19.257812 19.128906 20.242188 18.542969 20.316406 17.527344 C 20.367188 16.835938 19.921875 16.273438 19.386719 16.351562 " fill-opacity="1" fill-rule="nonzero"/><path fill="#1c273f" d="M 17.8125 14.207031 C 17.054688 14.355469 16.542969 15.597656 16.972656 16.246094 C 17.394531 16.890625 18.316406 16.359375 18.488281 15.375 C 18.605469 14.710938 18.285156 14.152344 17.8125 14.207031 " fill-opacity="1" fill-rule="nonzero"/><path fill="#1c273f" d="M 26.089844 48.886719 C 26.835938 49.039062 27.132812 48.667969 26.851562 48.253906 C 26.582031 47.855469 25.867188 47.550781 25.351562 47.613281 C 25.253906 47.628906 25.160156 47.644531 25.066406 47.710938 C 24.613281 48.019531 25.207031 48.703125 26.089844 48.886719 " fill-opacity="1" fill-rule="nonzero"/><path fill="#1c273f" d="M 9.761719 11.460938 C 9.796875 11.660156 10.191406 11.335938 10.664062 10.722656 C 10.671875 10.714844 11.464844 9.683594 11.3125 9.519531 C 11 9.433594 9.695312 11.066406 9.761719 11.460938 " fill-opacity="1" fill-rule="nonzero"/><path fill="#1c273f" d="M 26.25 50.1875 C 26.671875 50.179688 26.75 49.964844 26.433594 49.675781 C 26.183594 49.445312 25.59375 49.117188 24.988281 49.152344 C 24.917969 49.160156 24.785156 49.183594 24.714844 49.25 C 24.414062 49.546875 25.476562 50.195312 26.25 50.1875 " fill-opacity="1" fill-rule="nonzero"/><path fill="#1c273f" d="M 16.761719 12.113281 C 16.101562 12.175781 15.464844 13.492188 15.8125 14.066406 C 16.101562 14.539062 16.894531 14.140625 17.152344 13.21875 C 17.277344 12.765625 17.277344 12.101562 16.761719 12.113281 " fill-opacity="1" fill-rule="nonzero"/><path fill="#1c273f" d="M 21.441406 18.53125 C 20.554688 18.6875 20.195312 20.042969 20.867188 20.691406 C 21.476562 21.277344 22.59375 20.761719 22.5625 19.65625 C 22.550781 19.152344 22.238281 18.433594 21.441406 18.53125 " fill-opacity="1" fill-rule="nonzero"/><path fill="#1c273f" d="M 28.820312 44.382812 C 28.695312 44.027344 28.1875 43.507812 27.355469 43.621094 C 27.296875 43.632812 27.207031 43.652344 27.121094 43.691406 C 26.421875 43.984375 26.558594 44.859375 27.359375 45.226562 C 28.203125 45.613281 29.078125 45.109375 28.820312 44.382812 " fill-opacity="1" fill-rule="nonzero"/><path fill="#1c273f" d="M 8.296875 11.960938 C 8.632812 11.472656 9.042969 10.851562 9.101562 10.667969 C 9.097656 10.664062 9.09375 10.65625 9.09375 10.648438 C 8.894531 10.71875 7.710938 12.496094 7.757812 12.652344 C 7.777344 12.644531 7.839844 12.625 8.296875 11.960938 " fill-opacity="1" fill-rule="nonzero"/><path fill="#1c273f" d="M 9.960938 10.191406 C 9.96875 10.179688 10.777344 9.207031 10.78125 9.023438 C 10.777344 9.023438 10.773438 9.019531 10.769531 9.015625 C 10.542969 9.003906 9.160156 10.710938 9.277344 10.859375 C 9.378906 10.867188 9.75 10.445312 9.960938 10.191406 " fill-opacity="1" fill-rule="nonzero"/><path fill="#1c273f" d="M 23.722656 51.171875 C 23.667969 51.167969 23.667969 51.167969 23.65625 51.183594 C 23.78125 51.304688 25.554688 51.742188 25.71875 51.691406 C 25.695312 51.679688 25.660156 51.65625 25.15625 51.519531 C 24.4375 51.320312 23.953125 51.203125 23.722656 51.171875 " fill-opacity="1" fill-rule="nonzero"/><path fill="#1c273f" d="M 27.925781 28.109375 C 26.957031 28.335938 26.703125 29.644531 27.507812 30.296875 C 28.371094 30.996094 29.554688 30.300781 29.398438 29.183594 C 29.320312 28.648438 28.816406 27.957031 27.925781 28.109375 " fill-opacity="1" fill-rule="nonzero"/><path fill="#1c273f" d="M 29.539062 43.046875 C 29.542969 43.046875 29.542969 43.046875 29.542969 43.046875 C 29.546875 43.046875 29.546875 43.046875 29.546875 43.046875 C 30.453125 42.820312 30.3125 42.09375 30.292969 42.007812 C 30.199219 41.605469 29.738281 41.054688 28.863281 41.195312 C 28.519531 41.265625 28.335938 41.445312 28.253906 41.550781 C 27.753906 42.195312 28.449219 43.214844 29.539062 43.046875 " fill-opacity="1" fill-rule="nonzero"/><path fill="#1c273f" d="M 16.261719 10.066406 C 15.726562 10.101562 14.992188 11.292969 15.171875 11.835938 C 15.320312 12.285156 16 11.964844 16.371094 11.101562 C 16.539062 10.707031 16.660156 10.078125 16.261719 10.066406 " fill-opacity="1" fill-rule="nonzero"/><path fill="#1c273f" d="M 11.890625 9.488281 C 11.882812 9.714844 12.328125 9.40625 12.839844 8.828125 C 13.101562 8.53125 13.601562 7.890625 13.476562 7.792969 C 13.144531 7.761719 11.902344 9.089844 11.890625 9.488281 " fill-opacity="1" fill-rule="nonzero"/><path fill="#1c273f" d="M 26.6875 51.105469 C 26.839844 51.058594 26.746094 50.921875 26.449219 50.753906 C 26.203125 50.613281 25.597656 50.351562 25.089844 50.363281 C 25.085938 50.363281 25.085938 50.363281 25.085938 50.363281 C 25.027344 50.371094 24.925781 50.378906 24.890625 50.429688 C 24.722656 50.6875 26.214844 51.25 26.6875 51.105469 " fill-opacity="1" fill-rule="nonzero"/><path fill="#1c273f" d="M 23.921875 20.695312 C 23.921875 20.695312 23.917969 20.695312 23.917969 20.695312 C 23.917969 20.695312 23.917969 20.695312 23.914062 20.695312 C 22.828125 20.988281 22.835938 22.363281 23.496094 22.867188 C 24.246094 23.441406 25.269531 22.777344 25.183594 21.773438 C 25.140625 21.289062 24.761719 20.570312 23.921875 20.695312 " fill-opacity="1" fill-rule="nonzero"/><path fill="#1c273f" d="M 22.527344 50.96875 L 22.597656 50.988281 C 22.546875 50.972656 22.492188 50.957031 22.441406 50.941406 L 22.527344 50.96875 " fill-opacity="1" fill-rule="nonzero"/><path fill="#1c273f" d="M 30.738281 34.484375 C 30.609375 33.800781 29.929688 33.351562 29.253906 33.5 C 28.160156 33.804688 28.113281 35.109375 28.933594 35.640625 C 29.816406 36.207031 30.925781 35.496094 30.738281 34.484375 " fill-opacity="1" fill-rule="nonzero"/><path fill="#1c273f" d="M 13.242188 9.742188 C 13.300781 10.011719 13.820312 9.660156 14.296875 9.027344 C 14.523438 8.726562 14.917969 8.089844 14.6875 8.027344 C 14.328125 7.996094 13.148438 9.273438 13.242188 9.742188 " fill-opacity="1" fill-rule="nonzero"/><path fill="#1c273f" d="M 32 39.359375 C 31.941406 38.84375 31.355469 38.355469 30.609375 38.484375 C 29.75 38.722656 29.503906 39.667969 30.164062 40.195312 C 31 40.867188 32.101562 40.214844 32 39.359375 " fill-opacity="1" fill-rule="nonzero"/><path fill="#1c273f" d="M 27.371094 51.734375 C 27.441406 51.691406 27.117188 51.578125 27.019531 51.542969 C 26.605469 51.398438 25.949219 51.242188 25.667969 51.246094 C 25.628906 51.25 25.558594 51.253906 25.558594 51.285156 C 25.558594 51.449219 27.167969 51.84375 27.371094 51.734375 " fill-opacity="1" fill-rule="nonzero"/><path fill="#1c273f" d="M 26.757812 22.824219 C 26.757812 22.824219 26.757812 22.824219 26.753906 22.824219 C 26.753906 22.824219 26.75 22.824219 26.75 22.824219 C 25.804688 23.097656 25.605469 24.394531 26.425781 24.957031 C 27.285156 25.546875 28.226562 24.734375 28.089844 23.8125 C 28.019531 23.320312 27.515625 22.703125 26.757812 22.824219 " fill-opacity="1" fill-rule="nonzero"/><path fill="#1c273f" d="M 15.121094 9.75 C 15.210938 10.0625 15.765625 9.695312 16.15625 9.0625 C 16.335938 8.765625 16.617188 8.148438 16.320312 8.109375 C 15.832031 8.171875 14.992188 9.320312 15.121094 9.75 " fill-opacity="1" fill-rule="nonzero"/><path fill="#1c273f" d="M 11.171875 9.0625 C 11.171875 9.0625 11.175781 9.0625 11.175781 9.0625 C 11.289062 9.113281 11.828125 8.574219 11.988281 8.40625 C 12.023438 8.375 12.792969 7.582031 12.753906 7.441406 C 12.75 7.441406 12.746094 7.4375 12.742188 7.4375 C 12.582031 7.410156 11.0625 8.792969 11.171875 9.0625 " fill-opacity="1" fill-rule="nonzero"/><path fill="#1c273f" d="M 30.386719 47.640625 C 30.261719 47.375 29.800781 47.035156 29.171875 47.121094 C 29.085938 47.136719 28.996094 47.167969 28.929688 47.203125 C 28.460938 47.453125 28.664062 48.019531 29.308594 48.246094 C 29.992188 48.484375 30.617188 48.136719 30.386719 47.640625 " fill-opacity="1" fill-rule="nonzero"/><path fill="#1c273f" d="M 20.71875 15.609375 C 21.21875 16.148438 22.066406 15.59375 22.074219 14.722656 C 22.078125 14.304688 21.832031 13.742188 21.269531 13.808594 C 20.578125 13.9375 20.230469 15.082031 20.71875 15.609375 " fill-opacity="1" fill-rule="nonzero"/><path fill="#1c273f" d="M 28.855469 49.746094 C 29.441406 49.851562 29.792969 49.601562 29.554688 49.25 C 29.34375 48.941406 28.777344 48.730469 28.339844 48.792969 C 28.269531 48.808594 28.148438 48.828125 28.058594 48.902344 C 27.746094 49.152344 28.191406 49.625 28.855469 49.746094 " fill-opacity="1" fill-rule="nonzero"/><path fill="#1c273f" d="M 19.726562 11.839844 C 19.035156 11.992188 18.707031 13.144531 19.089844 13.585938 C 19.445312 13.992188 20.195312 13.585938 20.304688 12.753906 C 20.367188 12.265625 20.167969 11.777344 19.726562 11.839844 " fill-opacity="1" fill-rule="nonzero"/><path fill="#1c273f" d="M 31.585938 45.695312 C 31.488281 45.410156 31.089844 45.019531 30.394531 45.132812 C 30.363281 45.140625 30.289062 45.160156 30.289062 45.160156 C 29.582031 45.375 29.664062 46.089844 30.25 46.394531 C 30.960938 46.761719 31.796875 46.328125 31.585938 45.695312 " fill-opacity="1" fill-rule="nonzero"/><path fill="#1c273f" d="M 18.714844 9.914062 C 18.183594 9.980469 17.660156 11.066406 17.9375 11.523438 C 18.171875 11.90625 18.820312 11.574219 19.035156 10.820312 C 19.144531 10.445312 19.148438 9.890625 18.714844 9.914062 " fill-opacity="1" fill-rule="nonzero"/><path fill="#1c273f" d="M 23.300781 15.824219 C 22.414062 16.054688 22.367188 17.226562 22.878906 17.667969 C 23.40625 18.121094 24.316406 17.667969 24.273438 16.761719 C 24.246094 16.148438 23.808594 15.726562 23.300781 15.824219 " fill-opacity="1" fill-rule="nonzero"/><path fill="#1c273f" d="M 28.953125 50.859375 C 29.285156 50.835938 29.351562 50.683594 29.113281 50.484375 C 28.863281 50.273438 28.359375 50.085938 27.945312 50.136719 C 27.882812 50.144531 27.773438 50.164062 27.714844 50.21875 C 27.46875 50.449219 28.335938 50.898438 28.953125 50.859375 " fill-opacity="1" fill-rule="nonzero"/><path fill="#1c273f" d="M 29.296875 51.59375 C 29.417969 51.558594 29.351562 51.472656 29.132812 51.371094 C 28.894531 51.261719 28.402344 51.105469 28.011719 51.132812 C 27.949219 51.136719 27.875 51.152344 27.847656 51.1875 C 27.734375 51.367188 28.9375 51.703125 29.296875 51.59375 " fill-opacity="1" fill-rule="nonzero"/><path fill="#1c273f" d="M 15.621094 7.714844 C 15.664062 7.90625 16.097656 7.621094 16.515625 7.125 C 16.84375 6.734375 17.082031 6.308594 16.917969 6.292969 C 16.535156 6.328125 15.550781 7.402344 15.621094 7.714844 " fill-opacity="1" fill-rule="nonzero"/><g clip-path="url(#56c4720990)"><path fill="#1c273f" d="M 26.765625 51.8125 C 26.71875 51.8125 26.71875 51.8125 26.707031 51.820312 C 26.824219 51.894531 28.347656 52.097656 28.460938 52.054688 C 28.421875 52.042969 28.371094 52.035156 27.964844 51.972656 C 27.324219 51.875 26.972656 51.824219 26.765625 51.8125 " fill-opacity="1" fill-rule="nonzero"/></g><path fill="#1c273f" d="M 18.332031 8.894531 C 18.519531 8.480469 18.539062 8.03125 18.265625 8.054688 C 17.785156 8.140625 17.183594 9.144531 17.375 9.542969 C 17.527344 9.863281 18.054688 9.507812 18.332031 8.894531 " fill-opacity="1" fill-rule="nonzero"/><path fill="#1c273f" d="M 13.363281 7.289062 C 13.339844 7.421875 13.695312 7.191406 14.191406 6.753906 C 14.199219 6.746094 15.019531 6.019531 14.960938 5.921875 C 14.738281 5.878906 13.410156 7.019531 13.363281 7.289062 " fill-opacity="1" fill-rule="nonzero"/><path fill="#1c273f" d="M 31.195312 30.316406 C 30.160156 30.628906 30.203125 31.820312 30.8125 32.308594 C 31.527344 32.882812 32.703125 32.355469 32.550781 31.285156 C 32.449219 30.59375 31.84375 30.160156 31.195312 30.316406 " fill-opacity="1" fill-rule="nonzero"/><path fill="#1c273f" d="M 15.742188 6.167969 C 15.421875 6.164062 14.214844 7.308594 14.238281 7.59375 C 14.25 7.742188 14.605469 7.554688 15.160156 6.992188 C 15.191406 6.960938 15.894531 6.246094 15.742188 6.167969 " fill-opacity="1" fill-rule="nonzero"/><path fill="#1c273f" d="M 32.515625 35.570312 C 31.585938 35.804688 31.476562 36.898438 32.132812 37.363281 C 32.867188 37.882812 33.929688 37.265625 33.804688 36.390625 C 33.746094 35.984375 33.34375 35.402344 32.515625 35.570312 " fill-opacity="1" fill-rule="nonzero"/><path fill="#1c273f" d="M 10.804688 8.421875 C 10.808594 8.417969 10.804688 8.410156 10.808594 8.40625 C 10.65625 8.472656 9.457031 9.890625 9.453125 10.003906 C 9.488281 9.984375 9.578125 9.890625 9.96875 9.429688 C 10.613281 8.679688 10.753906 8.507812 10.804688 8.421875 " fill-opacity="1" fill-rule="nonzero"/><path fill="#1c273f" d="M 29.851562 24.964844 C 28.8125 25.28125 28.898438 26.519531 29.570312 26.964844 C 30.34375 27.480469 31.3125 26.824219 31.160156 25.886719 C 31.054688 25.238281 30.457031 24.816406 29.851562 24.964844 " fill-opacity="1" fill-rule="nonzero"/><path fill="#1c273f" d="M 25.757812 17.832031 C 24.890625 18.078125 24.816406 19.230469 25.449219 19.6875 C 26.113281 20.167969 26.984375 19.554688 26.859375 18.695312 C 26.800781 18.300781 26.453125 17.71875 25.757812 17.832031 " fill-opacity="1" fill-rule="nonzero"/><path fill="#1c273f" d="M 33.097656 43.464844 C 33.015625 43.074219 32.582031 42.722656 31.929688 42.839844 C 31.128906 43.023438 31.042969 43.820312 31.59375 44.199219 C 32.257812 44.65625 33.242188 44.175781 33.097656 43.464844 " fill-opacity="1" fill-rule="nonzero"/><path fill="#1c273f" d="M 11.679688 7.875 C 11.6875 7.867188 12.480469 7.105469 12.53125 6.96875 C 12.53125 6.96875 12.53125 6.96875 12.53125 6.960938 C 12.359375 6.957031 11.007812 8.269531 11.039062 8.414062 C 11.097656 8.417969 11.464844 8.078125 11.679688 7.875 " fill-opacity="1" fill-rule="nonzero"/><path fill="#1c273f" d="M 28.351562 21.648438 C 29.097656 22.136719 29.875 21.4375 29.734375 20.660156 C 29.660156 20.253906 29.242188 19.710938 28.578125 19.839844 C 27.851562 20.023438 27.59375 21.152344 28.351562 21.648438 " fill-opacity="1" fill-rule="nonzero"/><path fill="#1c273f" d="M 34.828125 40.914062 C 34.773438 40.507812 34.332031 40.144531 33.710938 40.265625 C 33.039062 40.4375 32.695312 41.246094 33.296875 41.699219 C 33.992188 42.214844 34.921875 41.613281 34.828125 40.914062 " fill-opacity="1" fill-rule="nonzero"/><g clip-path="url(#ec3aadc156)"><path fill="#1c273f" d="M 28.574219 51.789062 C 28.507812 51.796875 28.488281 51.800781 28.484375 51.816406 C 28.546875 51.941406 29.773438 52.074219 29.933594 52.015625 C 29.933594 52.011719 29.933594 52.007812 29.933594 52.003906 C 29.921875 51.992188 29.886719 51.96875 29.585938 51.910156 C 29.476562 51.886719 28.898438 51.777344 28.574219 51.789062 " fill-opacity="1" fill-rule="nonzero"/></g><path fill="#1c273f" d="M 17.367188 7.59375 C 17.410156 7.84375 17.828125 7.621094 18.199219 7.054688 C 18.4375 6.691406 18.570312 6.308594 18.371094 6.3125 C 18.015625 6.367188 17.3125 7.265625 17.367188 7.59375 " fill-opacity="1" fill-rule="nonzero"/><path fill="#1c273f" d="M 13.703125 6.367188 C 14.007812 6.121094 14.523438 5.695312 14.546875 5.597656 C 14.453125 5.515625 13.050781 6.648438 13.03125 6.820312 C 13.042969 6.835938 13.078125 6.871094 13.703125 6.367188 " fill-opacity="1" fill-rule="nonzero"/><path fill="#1c273f" d="M 22.589844 12.839844 C 22.96875 13.203125 23.636719 12.839844 23.617188 12.121094 C 23.609375 11.839844 23.457031 11.328125 22.949219 11.402344 C 22.367188 11.523438 22.207031 12.472656 22.589844 12.839844 " fill-opacity="1" fill-rule="nonzero"/><path fill="#1c273f" d="M 31.921875 48.246094 C 31.886719 48.253906 31.835938 48.269531 31.800781 48.28125 C 31.34375 48.445312 31.445312 48.863281 31.851562 49.046875 C 32.316406 49.253906 32.976562 49.035156 32.824219 48.621094 C 32.75 48.421875 32.453125 48.160156 31.921875 48.246094 " fill-opacity="1" fill-rule="nonzero"/><path fill="#1c273f" d="M 21.914062 10.324219 C 21.953125 9.925781 21.789062 9.546875 21.441406 9.605469 C 20.90625 9.734375 20.675781 10.625 20.980469 10.972656 C 21.269531 11.300781 21.84375 10.984375 21.914062 10.324219 " fill-opacity="1" fill-rule="nonzero"/><path fill="#1c273f" d="M 31.320312 50.382812 C 31.753906 50.464844 32.136719 50.300781 31.953125 50.019531 C 31.800781 49.792969 31.40625 49.660156 31.054688 49.722656 C 30.996094 49.734375 30.902344 49.753906 30.828125 49.804688 C 30.582031 49.980469 30.855469 50.296875 31.320312 50.382812 " fill-opacity="1" fill-rule="nonzero"/><path fill="#1c273f" d="M 34.066406 46.84375 C 34.011719 46.621094 33.726562 46.328125 33.167969 46.433594 C 32.507812 46.605469 32.542969 47.152344 32.9375 47.378906 C 33.457031 47.679688 34.183594 47.335938 34.066406 46.84375 " fill-opacity="1" fill-rule="nonzero"/><path fill="#1c273f" d="M 33.113281 27.082031 C 32.210938 27.332031 32.253906 28.445312 32.820312 28.867188 C 33.460938 29.34375 34.488281 28.808594 34.308594 27.871094 C 34.242188 27.519531 33.90625 26.90625 33.113281 27.082031 " fill-opacity="1" fill-rule="nonzero"/><path fill="#1c273f" d="M 18.03125 4.652344 C 17.757812 4.667969 16.695312 5.566406 16.695312 5.785156 C 16.691406 5.894531 16.980469 5.75 17.460938 5.320312 C 17.46875 5.3125 18.15625 4.699219 18.03125 4.652344 " fill-opacity="1" fill-rule="nonzero"/><path fill="#1c273f" d="M 15.785156 5.617188 C 15.777344 5.710938 16.082031 5.53125 16.546875 5.175781 C 16.621094 5.117188 17.273438 4.613281 17.28125 4.511719 C 17.28125 4.511719 17.277344 4.507812 17.277344 4.507812 C 17.070312 4.492188 15.800781 5.4375 15.785156 5.617188 " fill-opacity="1" fill-rule="nonzero"/><path fill="#1c273f" d="M 34.136719 34.175781 C 34.753906 34.625 35.78125 34.128906 35.652344 33.230469 C 35.601562 32.882812 35.296875 32.273438 34.484375 32.453125 C 33.5 32.773438 33.648438 33.816406 34.136719 34.175781 " fill-opacity="1" fill-rule="nonzero"/><path fill="#1c273f" d="M 24.6875 14.710938 C 25.1875 15.117188 25.867188 14.628906 25.773438 13.929688 C 25.734375 13.613281 25.472656 13.144531 24.953125 13.230469 C 24.367188 13.367188 24.199219 14.308594 24.6875 14.710938 " fill-opacity="1" fill-rule="nonzero"/><path fill="#1c273f" d="M 36.691406 38.066406 C 36.628906 37.613281 36.132812 37.320312 35.648438 37.449219 C 34.9375 37.679688 34.707031 38.496094 35.238281 38.902344 C 35.894531 39.398438 36.785156 38.757812 36.691406 38.066406 " fill-opacity="1" fill-rule="nonzero"/><path fill="#1c273f" d="M 31.40625 51.296875 C 31.613281 51.261719 31.640625 51.15625 31.476562 51.035156 C 31.339844 50.9375 30.984375 50.800781 30.617188 50.84375 C 30.496094 50.863281 30.449219 50.902344 30.425781 50.929688 C 30.28125 51.113281 30.96875 51.371094 31.40625 51.296875 " fill-opacity="1" fill-rule="nonzero"/><path fill="#1c273f" d="M 19.894531 9.113281 C 20.082031 9.4375 20.570312 9.117188 20.722656 8.570312 C 20.824219 8.207031 20.746094 7.828125 20.46875 7.863281 C 20.050781 7.960938 19.6875 8.753906 19.894531 9.113281 " fill-opacity="1" fill-rule="nonzero"/><path fill="#1c273f" d="M 34.738281 44.289062 C 34.1875 44.453125 33.972656 44.996094 34.335938 45.308594 C 34.84375 45.746094 35.660156 45.316406 35.621094 44.773438 C 35.597656 44.429688 35.160156 44.1875 34.738281 44.289062 " fill-opacity="1" fill-rule="nonzero"/><path fill="#1c273f" d="M 27.792969 16.6875 C 27.792969 16.6875 27.796875 16.6875 27.796875 16.6875 C 28.265625 16.535156 28.371094 16.0625 28.328125 15.785156 C 28.257812 15.320312 27.800781 14.976562 27.394531 15.074219 C 27.3125 15.101562 27.140625 15.15625 26.996094 15.378906 C 26.601562 15.996094 27.101562 16.816406 27.792969 16.6875 " fill-opacity="1" fill-rule="nonzero"/><path fill="#1c273f" d="M 31.417969 23.492188 C 32.140625 24.035156 32.941406 23.375 32.796875 22.605469 C 32.710938 22.148438 32.257812 21.726562 31.667969 21.847656 C 30.957031 22.082031 30.8125 23.035156 31.417969 23.492188 " fill-opacity="1" fill-rule="nonzero"/><path fill="#1c273f" d="M 15.300781 5.320312 C 15.367188 5.34375 15.816406 5.042969 16.007812 4.910156 C 16.015625 4.90625 16.804688 4.367188 16.828125 4.28125 C 16.675781 4.246094 15.292969 5.1875 15.300781 5.320312 " fill-opacity="1" fill-rule="nonzero"/><path fill="#1c273f" d="M 20.066406 6.210938 C 19.75 6.28125 19.269531 7.007812 19.390625 7.335938 C 19.5 7.625 19.933594 7.25 20.121094 6.796875 C 20.246094 6.507812 20.246094 6.191406 20.066406 6.210938 " fill-opacity="1" fill-rule="nonzero"/><path fill="#1c273f" d="M 19.042969 4.699219 C 18.824219 4.707031 17.945312 5.53125 17.953125 5.796875 C 17.957031 5.964844 18.347656 5.679688 18.667969 5.328125 C 18.859375 5.117188 19.164062 4.722656 19.042969 4.699219 " fill-opacity="1" fill-rule="nonzero"/><path fill="#1c273f" d="M 31.476562 51.714844 C 31.261719 51.644531 30.863281 51.585938 30.648438 51.613281 C 30.609375 51.617188 30.546875 51.628906 30.535156 51.660156 C 30.488281 51.804688 31.441406 51.914062 31.617188 51.835938 C 31.6875 51.800781 31.589844 51.75 31.476562 51.714844 " fill-opacity="1" fill-rule="nonzero"/><path fill="#1c273f" d="M 12.777344 6.410156 C 12.78125 6.40625 12.78125 6.402344 12.785156 6.398438 C 12.691406 6.441406 11.566406 7.46875 11.507812 7.59375 C 11.53125 7.578125 11.53125 7.578125 11.996094 7.148438 C 12.589844 6.597656 12.730469 6.464844 12.777344 6.410156 " fill-opacity="1" fill-rule="nonzero"/><path fill="#1c273f" d="M 13.710938 5.847656 C 14.441406 5.292969 14.496094 5.226562 14.539062 5.179688 C 14.460938 5.136719 13.203125 6.097656 13.191406 6.207031 C 13.203125 6.207031 13.234375 6.210938 13.710938 5.847656 " fill-opacity="1" fill-rule="nonzero"/><path fill="#1c273f" d="M 18.324219 4.054688 C 18.355469 4.09375 18.546875 3.984375 19.011719 3.675781 C 19.113281 3.609375 19.605469 3.28125 19.625 3.21875 C 19.625 3.214844 19.625 3.214844 19.621094 3.214844 C 19.53125 3.199219 18.34375 3.894531 18.324219 4.054688 " fill-opacity="1" fill-rule="nonzero"/><path fill="#1c273f" d="M 37.371094 42.394531 C 37.375 42.386719 37.335938 41.679688 36.554688 41.890625 C 35.65625 42.164062 36.046875 42.882812 36.128906 42.96875 C 36.421875 43.265625 37.332031 43.109375 37.371094 42.394531 " fill-opacity="1" fill-rule="nonzero"/><path fill="#1c273f" d="M 20.214844 4.691406 C 19.976562 4.738281 19.4375 5.410156 19.464844 5.625 C 19.488281 5.785156 19.796875 5.609375 20.054688 5.230469 C 20.117188 5.140625 20.417969 4.679688 20.214844 4.691406 " fill-opacity="1" fill-rule="nonzero"/><g clip-path="url(#0d25929a67)"><path fill="#1c273f" d="M 31.917969 52.027344 C 31.515625 52.007812 31.335938 52.007812 31.203125 52.015625 C 31.136719 52.023438 31.132812 52.027344 31.128906 52.035156 C 31.21875 52.085938 32.058594 52.074219 32.179688 52.042969 C 32.171875 52.039062 32.167969 52.035156 31.917969 52.027344 " fill-opacity="1" fill-rule="nonzero"/></g><path fill="#1c273f" d="M 37.3125 35.824219 C 37.433594 35.914062 37.761719 36.089844 38.234375 35.78125 C 38.386719 35.679688 38.636719 35.441406 38.574219 34.996094 C 38.488281 34.410156 38.015625 34.328125 37.636719 34.4375 C 36.875 34.707031 36.953125 35.550781 37.3125 35.824219 " fill-opacity="1" fill-rule="nonzero"/><path fill="#1c273f" d="M 36.128906 30.734375 C 36.503906 31.042969 37.546875 30.867188 37.445312 29.863281 C 37.441406 29.855469 37.308594 28.953125 36.433594 29.179688 C 35.496094 29.460938 35.816406 30.472656 36.128906 30.734375 " fill-opacity="1" fill-rule="nonzero"/><path fill="#1c273f" d="M 34.746094 25.355469 C 34.816406 25.40625 35.199219 25.636719 35.636719 25.335938 C 35.824219 25.203125 36.03125 24.957031 35.941406 24.53125 C 35.820312 23.976562 35.425781 23.726562 34.90625 23.875 C 34.144531 24.148438 34.316406 25.0625 34.746094 25.355469 " fill-opacity="1" fill-rule="nonzero"/><path fill="#1c273f" d="M 30.101562 18.371094 C 30.539062 18.625 31.316406 18.390625 31.148438 17.613281 C 31.058594 17.210938 30.71875 16.859375 30.230469 16.960938 C 29.464844 17.175781 29.664062 18.117188 30.101562 18.371094 " fill-opacity="1" fill-rule="nonzero"/><path fill="#1c273f" d="M 16.621094 4.015625 C 16.621094 4.015625 16.617188 4.011719 16.617188 4.011719 C 16.492188 4.015625 15.410156 4.671875 15.261719 4.867188 C 15.324219 4.859375 15.480469 4.773438 15.875 4.523438 C 16.433594 4.171875 16.601562 4.058594 16.621094 4.015625 " fill-opacity="1" fill-rule="nonzero"/><path fill="#1c273f" d="M 33.378906 50.414062 C 33.335938 50.425781 33.265625 50.441406 33.214844 50.476562 C 33.089844 50.566406 33.132812 50.75 33.453125 50.824219 C 33.726562 50.886719 34.097656 50.785156 33.972656 50.578125 C 33.894531 50.453125 33.679688 50.355469 33.378906 50.414062 " fill-opacity="1" fill-rule="nonzero"/><path fill="#1c273f" d="M 19.132812 4.144531 C 19.234375 4.105469 19.375 4.035156 19.707031 3.773438 C 19.972656 3.558594 20.28125 3.300781 20.21875 3.285156 C 20.085938 3.292969 19.019531 4.035156 19.132812 4.144531 " fill-opacity="1" fill-rule="nonzero"/><path fill="#1c273f" d="M 17.816406 3.890625 C 17.929688 3.859375 18.113281 3.765625 18.511719 3.53125 C 19.191406 3.136719 19.199219 3.113281 19.207031 3.089844 C 19.203125 3.089844 19.203125 3.089844 19.203125 3.089844 C 19.105469 3.078125 17.894531 3.734375 17.816406 3.890625 " fill-opacity="1" fill-rule="nonzero"/><path fill="#1c273f" d="M 34.292969 49.152344 C 34.269531 49.15625 34.25 49.164062 34.230469 49.167969 C 33.960938 49.253906 33.820312 49.527344 34.164062 49.695312 C 34.464844 49.84375 34.976562 49.664062 34.882812 49.378906 C 34.867188 49.324219 34.757812 49.0625 34.292969 49.152344 " fill-opacity="1" fill-rule="nonzero"/><path fill="#1c273f" d="M 22.597656 8.527344 C 22.746094 8.71875 23.195312 8.660156 23.25 8.050781 C 23.25 8.046875 23.246094 7.507812 22.886719 7.558594 C 22.480469 7.644531 22.425781 8.308594 22.597656 8.527344 " fill-opacity="1" fill-rule="nonzero"/><path fill="#1c273f" d="M 24.175781 10.207031 C 24.179688 10.207031 24.410156 10.398438 24.625 10.246094 C 24.699219 10.191406 24.90625 10.046875 24.882812 9.710938 C 24.882812 9.683594 24.835938 9.082031 24.367188 9.164062 C 23.910156 9.269531 23.902344 9.972656 24.175781 10.207031 " fill-opacity="1" fill-rule="nonzero"/><path fill="#1c273f" d="M 35.570312 47.546875 C 35.117188 47.675781 35.097656 48.03125 35.324219 48.195312 C 35.582031 48.378906 36.210938 48.210938 36.15625 47.8125 C 36.125 47.566406 35.902344 47.464844 35.570312 47.546875 " fill-opacity="1" fill-rule="nonzero"/><path fill="#1c273f" d="M 33.203125 20.136719 C 33.550781 20.359375 34.328125 20.210938 34.195312 19.417969 C 34.171875 19.289062 33.925781 18.664062 33.285156 18.847656 C 32.546875 19.101562 32.894531 19.941406 33.203125 20.136719 " fill-opacity="1" fill-rule="nonzero"/><path fill="#1c273f" d="M 38.539062 39.195312 C 37.789062 39.449219 37.980469 40.09375 38.097656 40.242188 C 38.378906 40.597656 39.238281 40.378906 39.28125 39.671875 C 39.289062 39.5625 39.179688 39.011719 38.539062 39.195312 " fill-opacity="1" fill-rule="nonzero"/><path fill="#1c273f" d="M 14.242188 5.183594 C 14.835938 4.746094 14.835938 4.746094 14.875 4.714844 C 14.878906 4.710938 14.882812 4.707031 14.882812 4.703125 C 14.789062 4.742188 13.933594 5.378906 13.867188 5.457031 C 14 5.375 14.117188 5.273438 14.242188 5.183594 " fill-opacity="1" fill-rule="nonzero"/><g clip-path="url(#1b27f61210)"><path fill="#1c273f" d="M 18.9375 2.9375 C 18.894531 2.914062 17.804688 3.445312 17.675781 3.585938 C 17.710938 3.597656 17.878906 3.515625 18.265625 3.3125 C 18.804688 3.035156 18.921875 2.96875 18.9375 2.9375 " fill-opacity="1" fill-rule="nonzero"/></g><path fill="#1c273f" d="M 33.359375 51.539062 C 33.539062 51.515625 33.574219 51.46875 33.46875 51.394531 C 33.46875 51.390625 33.242188 51.25 32.917969 51.308594 C 32.878906 51.316406 32.800781 51.332031 32.773438 51.367188 C 32.714844 51.449219 33.042969 51.582031 33.359375 51.539062 " fill-opacity="1" fill-rule="nonzero"/><path fill="#1c273f" d="M 22.132812 6.480469 C 22.171875 6.265625 22.171875 6.015625 21.949219 6.039062 C 21.609375 6.105469 21.476562 6.746094 21.601562 6.90625 C 21.714844 7.054688 22.046875 6.945312 22.132812 6.480469 " fill-opacity="1" fill-rule="nonzero"/><path fill="#1c273f" d="M 37.742188 45.902344 C 37.738281 45.738281 37.660156 45.484375 37.199219 45.597656 C 36.523438 45.804688 36.800781 46.269531 36.863281 46.324219 C 37.085938 46.527344 37.757812 46.339844 37.742188 45.902344 " fill-opacity="1" fill-rule="nonzero"/><path fill="#1c273f" d="M 20.644531 3.714844 C 20.65625 3.699219 20.675781 3.683594 20.6875 3.667969 C 20.996094 3.347656 20.980469 3.3125 20.9375 3.3125 C 20.777344 3.339844 20.160156 3.910156 20.152344 4.039062 C 20.148438 4.097656 20.265625 4.097656 20.644531 3.714844 " fill-opacity="1" fill-rule="nonzero"/><path fill="#1c273f" d="M 26.25 11.898438 C 26.542969 12.089844 27.09375 11.90625 26.972656 11.328125 C 26.910156 11.027344 26.714844 10.738281 26.351562 10.828125 C 25.796875 10.992188 25.988281 11.722656 26.25 11.898438 " fill-opacity="1" fill-rule="nonzero"/><path fill="#1c273f" d="M 28.746094 13.5625 C 29.09375 13.765625 29.621094 13.515625 29.460938 12.980469 C 29.398438 12.765625 29.222656 12.417969 28.785156 12.515625 C 28.21875 12.671875 28.460938 13.398438 28.746094 13.5625 " fill-opacity="1" fill-rule="nonzero"/><path fill="#1c273f" d="M 38.039062 27.085938 C 38.351562 27.371094 39.148438 27.277344 39.082031 26.378906 C 39.0625 26.128906 38.753906 25.921875 38.75 25.921875 C 38.554688 25.796875 38.367188 25.847656 38.269531 25.875 C 37.582031 26.101562 37.777344 26.84375 38.039062 27.085938 " fill-opacity="1" fill-rule="nonzero"/><path fill="#1c273f" d="M 32.929688 51.816406 C 32.902344 51.820312 32.84375 51.832031 32.84375 51.847656 C 32.847656 51.867188 32.980469 51.890625 33.1875 51.890625 C 33.289062 51.890625 33.527344 51.878906 33.539062 51.851562 C 33.535156 51.84375 33.523438 51.839844 33.441406 51.828125 C 33.4375 51.828125 33.152344 51.785156 32.929688 51.816406 " fill-opacity="1" fill-rule="nonzero"/><path fill="#1c273f" d="M 21.15625 5.320312 C 21.171875 5.359375 21.214844 5.441406 21.34375 5.347656 C 21.410156 5.296875 21.515625 5.203125 21.601562 4.992188 C 21.660156 4.839844 21.742188 4.589844 21.582031 4.601562 C 21.371094 4.632812 21.097656 5.152344 21.15625 5.320312 " fill-opacity="1" fill-rule="nonzero"/><path fill="#1c273f" d="M 39.398438 32.441406 C 39.570312 32.558594 39.914062 32.566406 40.03125 32.480469 C 40.144531 32.402344 40.488281 32.167969 40.417969 31.730469 C 40.359375 31.382812 40.101562 31.09375 39.648438 31.238281 C 38.9375 31.5 39.140625 32.261719 39.398438 32.441406 " fill-opacity="1" fill-rule="nonzero"/><path fill="#1c273f" d="M 16.074219 4.074219 C 16.082031 4.070312 16.640625 3.746094 16.707031 3.683594 C 16.707031 3.683594 16.707031 3.679688 16.707031 3.679688 C 16.613281 3.695312 15.761719 4.1875 15.648438 4.304688 C 15.648438 4.304688 15.652344 4.308594 15.652344 4.308594 C 15.6875 4.300781 15.789062 4.242188 16.074219 4.074219 " fill-opacity="1" fill-rule="nonzero"/><path fill="#1c273f" d="M 40.613281 36.289062 C 40.082031 36.460938 40.03125 37.007812 40.285156 37.257812 C 40.5625 37.539062 41.226562 37.242188 41.21875 36.726562 C 41.214844 36.625 41.179688 36.128906 40.613281 36.289062 " fill-opacity="1" fill-rule="nonzero"/><path fill="#1c273f" d="M 39.550781 43.648438 C 39.550781 43.515625 39.507812 43.222656 39.066406 43.339844 C 38.550781 43.492188 38.5625 43.929688 38.707031 44.082031 C 38.925781 44.3125 39.546875 44.058594 39.550781 43.648438 " fill-opacity="1" fill-rule="nonzero"/><path fill="#1c273f" d="M 36.5 21.824219 C 36.863281 22.050781 37.488281 21.769531 37.328125 21.203125 C 37.289062 21.054688 37.113281 20.589844 36.578125 20.738281 C 35.976562 20.9375 36.203125 21.632812 36.5 21.824219 " fill-opacity="1" fill-rule="nonzero"/><path fill="#1c273f" d="M 31.570312 15.183594 C 31.832031 15.351562 32.398438 15.246094 32.261719 14.671875 C 32.261719 14.664062 32.097656 14.09375 31.585938 14.242188 C 31.023438 14.433594 31.371094 15.058594 31.570312 15.183594 " fill-opacity="1" fill-rule="nonzero"/><path fill="#1c273f" d="M 21.65625 3.617188 C 21.679688 3.585938 21.890625 3.296875 21.789062 3.296875 C 21.636719 3.328125 21.320312 3.761719 21.324219 3.855469 C 21.324219 3.859375 21.371094 4.003906 21.65625 3.617188 " fill-opacity="1" fill-rule="nonzero"/><path fill="#1c273f" d="M 35.257812 50.894531 C 35.242188 50.898438 35.226562 50.902344 35.210938 50.90625 C 35.066406 50.957031 35.105469 51.03125 35.175781 51.066406 C 35.289062 51.121094 35.570312 51.078125 35.527344 50.953125 C 35.527344 50.953125 35.46875 50.851562 35.257812 50.894531 " fill-opacity="1" fill-rule="nonzero"/><path fill="#1c273f" d="M 41.070312 40.820312 C 40.796875 40.917969 40.601562 41.257812 40.78125 41.46875 C 40.960938 41.683594 41.449219 41.484375 41.484375 41.101562 C 41.511719 40.808594 41.296875 40.75 41.070312 40.820312 " fill-opacity="1" fill-rule="nonzero"/><path fill="#1c273f" d="M 34.710938 16.78125 C 35.042969 16.945312 35.414062 16.683594 35.257812 16.285156 C 35.160156 16.023438 34.925781 15.898438 34.683594 15.976562 C 34.238281 16.144531 34.472656 16.664062 34.710938 16.78125 " fill-opacity="1" fill-rule="nonzero"/><path fill="#1c273f" d="M 36.207031 49.875 C 35.992188 49.929688 35.960938 50.0625 36.03125 50.132812 C 36.152344 50.25 36.488281 50.144531 36.480469 49.992188 C 36.476562 49.925781 36.414062 49.832031 36.207031 49.875 " fill-opacity="1" fill-rule="nonzero"/><path fill="#1c273f" d="M 41.421875 28.789062 C 41.628906 28.941406 42.117188 28.765625 42.046875 28.320312 C 42.011719 28.09375 41.894531 27.851562 41.542969 27.960938 C 41.085938 28.121094 41.226562 28.640625 41.421875 28.789062 " fill-opacity="1" fill-rule="nonzero"/><g clip-path="url(#147e91e4d1)"><path fill="#1c273f" d="M 42.660156 33.210938 C 42.222656 33.367188 42.324219 33.847656 42.472656 33.953125 C 42.472656 33.953125 42.664062 34.082031 42.898438 33.910156 C 42.949219 33.871094 43.109375 33.753906 43.085938 33.5 C 43.070312 33.347656 42.996094 33.109375 42.660156 33.210938 " fill-opacity="1" fill-rule="nonzero"/></g><path fill="#1c273f" d="M 37.519531 48.5 C 37.195312 48.597656 37.320312 48.816406 37.324219 48.820312 C 37.40625 48.925781 37.765625 48.84375 37.785156 48.632812 C 37.792969 48.570312 37.777344 48.433594 37.519531 48.5 " fill-opacity="1" fill-rule="nonzero"/><path fill="#1c273f" d="M 27.453125 9.230469 C 27.597656 9.3125 27.902344 9.230469 27.800781 8.914062 C 27.769531 8.816406 27.667969 8.589844 27.4375 8.648438 C 27.121094 8.75 27.316406 9.152344 27.453125 9.230469 " fill-opacity="1" fill-rule="nonzero"/><path fill="#1c273f" d="M 35 51.539062 C 34.972656 51.523438 34.894531 51.496094 34.753906 51.523438 C 34.734375 51.527344 34.6875 51.539062 34.679688 51.554688 C 34.65625 51.59375 34.867188 51.617188 34.988281 51.578125 C 35.023438 51.5625 35.027344 51.550781 35 51.539062 " fill-opacity="1" fill-rule="nonzero"/><path fill="#1c273f" d="M 25.417969 7.738281 C 25.519531 7.824219 25.804688 7.816406 25.765625 7.472656 C 25.765625 7.46875 25.707031 7.132812 25.457031 7.191406 C 25.207031 7.269531 25.296875 7.636719 25.417969 7.738281 " fill-opacity="1" fill-rule="nonzero"/><path fill="#1c273f" d="M 23.1875 4.710938 C 23.199219 4.632812 23.214844 4.449219 23.09375 4.464844 C 22.933594 4.5 22.894531 4.824219 22.957031 4.894531 C 23.015625 4.960938 23.152344 4.917969 23.1875 4.710938 " fill-opacity="1" fill-rule="nonzero"/><path fill="#1c273f" d="M 23.917969 6.296875 C 23.949219 6.324219 24.03125 6.375 24.128906 6.289062 C 24.171875 6.25 24.21875 6.175781 24.207031 6.035156 C 24.203125 5.96875 24.171875 5.75 24 5.785156 C 23.777344 5.851562 23.820312 6.214844 23.917969 6.296875 " fill-opacity="1" fill-rule="nonzero"/><path fill="#1c273f" d="M 39.886719 23.449219 C 40.066406 23.554688 40.546875 23.472656 40.441406 22.980469 C 40.441406 22.976562 40.332031 22.558594 39.9375 22.675781 C 39.492188 22.835938 39.707031 23.339844 39.886719 23.449219 " fill-opacity="1" fill-rule="nonzero"/><path fill="#1c273f" d="M 29.9375 10.699219 C 30.109375 10.765625 30.15625 10.714844 30.210938 10.648438 C 30.242188 10.617188 30.300781 10.527344 30.234375 10.371094 C 30.164062 10.199219 30.007812 10.109375 29.855469 10.15625 C 29.847656 10.15625 29.835938 10.160156 29.828125 10.164062 C 29.625 10.25 29.699219 10.609375 29.9375 10.699219 " fill-opacity="1" fill-rule="nonzero"/><path fill="#1c273f" d="M 39.191406 46.75 C 38.960938 46.816406 38.890625 47.007812 38.957031 47.097656 C 39.015625 47.1875 39.195312 47.144531 39.199219 47.140625 C 39.199219 47.140625 39.390625 47.039062 39.417969 46.910156 C 39.429688 46.851562 39.417969 46.691406 39.191406 46.75 " fill-opacity="1" fill-rule="nonzero"/><path fill="#1c273f" d="M 41.082031 44.6875 C 40.851562 44.769531 40.867188 44.96875 40.898438 45.007812 C 40.964844 45.097656 41.226562 45.015625 41.265625 44.832031 C 41.273438 44.792969 41.300781 44.621094 41.082031 44.6875 " fill-opacity="1" fill-rule="nonzero"/><g clip-path="url(#c5b5ad7b84)"><path fill="#1c273f" d="M 43.183594 38.058594 C 42.949219 38.144531 42.902344 38.425781 43.007812 38.539062 C 43.121094 38.667969 43.457031 38.503906 43.464844 38.257812 C 43.472656 38.148438 43.441406 37.976562 43.183594 38.058594 " fill-opacity="1" fill-rule="nonzero"/></g><path fill="#1c273f" d="M 38.007812 18.308594 C 38.179688 18.394531 38.484375 18.257812 38.371094 17.976562 C 38.328125 17.863281 38.222656 17.691406 38 17.757812 C 37.671875 17.875 37.863281 18.238281 38.007812 18.308594 " fill-opacity="1" fill-rule="nonzero"/><path fill="#1c273f" d="M 32.75 12.125 C 32.761719 12.128906 32.867188 12.167969 32.941406 12.097656 C 33 12.042969 33.015625 11.976562 32.984375 11.898438 C 32.984375 11.898438 32.886719 11.671875 32.691406 11.722656 C 32.679688 11.726562 32.671875 11.730469 32.664062 11.734375 C 32.480469 11.820312 32.613281 12.070312 32.75 12.125 " fill-opacity="1" fill-rule="nonzero"/><g fill="#1c273f" fill-opacity="1"><g transform="translate(43.46646, 35.641793)"><g><path d="M 3.359375 0 L 3.359375 -8.921875 L 0.40625 -8.921875 L 0.40625 -9.890625 L 7.515625 -9.890625 L 7.515625 -8.921875 L 4.546875 -8.921875 L 4.546875 0 Z M 3.359375 0 "/></g></g></g><g fill="#1c273f" fill-opacity="1"><g transform="translate(51.385903, 35.641793)"><g><path d="M 4.125 0.171875 C 3.457031 0.171875 2.863281 0.0195312 2.34375 -0.28125 C 1.820312 -0.59375 1.410156 -1.019531 1.109375 -1.5625 C 0.816406 -2.113281 0.671875 -2.757812 0.671875 -3.5 C 0.671875 -4.238281 0.816406 -4.882812 1.109375 -5.4375 C 1.410156 -5.988281 1.820312 -6.414062 2.34375 -6.71875 C 2.863281 -7.03125 3.46875 -7.1875 4.15625 -7.1875 C 4.832031 -7.1875 5.414062 -7.03125 5.90625 -6.71875 C 6.40625 -6.414062 6.785156 -6.015625 7.046875 -5.515625 C 7.316406 -5.015625 7.453125 -4.476562 7.453125 -3.90625 C 7.453125 -3.800781 7.445312 -3.695312 7.4375 -3.59375 C 7.4375 -3.488281 7.4375 -3.367188 7.4375 -3.234375 L 1.859375 -3.234375 C 1.878906 -2.703125 2 -2.257812 2.21875 -1.90625 C 2.445312 -1.550781 2.726562 -1.28125 3.0625 -1.09375 C 3.394531 -0.914062 3.75 -0.828125 4.125 -0.828125 C 4.613281 -0.828125 5.023438 -0.941406 5.359375 -1.171875 C 5.691406 -1.398438 5.929688 -1.707031 6.078125 -2.09375 L 7.25 -2.09375 C 7.0625 -1.4375 6.703125 -0.894531 6.171875 -0.46875 C 5.640625 -0.0390625 4.957031 0.171875 4.125 0.171875 Z M 4.125 -6.171875 C 3.5625 -6.171875 3.0625 -6 2.625 -5.65625 C 2.1875 -5.3125 1.929688 -4.8125 1.859375 -4.15625 L 6.28125 -4.15625 C 6.25 -4.789062 6.03125 -5.285156 5.625 -5.640625 C 5.21875 -5.992188 4.71875 -6.171875 4.125 -6.171875 Z M 4.125 -6.171875 "/></g></g></g><g fill="#1c273f" fill-opacity="1"><g transform="translate(59.432622, 35.641793)"><g><path d="M 4.203125 0.171875 C 3.535156 0.171875 2.929688 0.0195312 2.390625 -0.28125 C 1.859375 -0.59375 1.4375 -1.023438 1.125 -1.578125 C 0.820312 -2.128906 0.671875 -2.769531 0.671875 -3.5 C 0.671875 -4.238281 0.820312 -4.882812 1.125 -5.4375 C 1.4375 -5.988281 1.859375 -6.414062 2.390625 -6.71875 C 2.929688 -7.03125 3.535156 -7.1875 4.203125 -7.1875 C 5.023438 -7.1875 5.722656 -6.96875 6.296875 -6.53125 C 6.867188 -6.09375 7.226562 -5.515625 7.375 -4.796875 L 6.171875 -4.796875 C 6.078125 -5.222656 5.84375 -5.554688 5.46875 -5.796875 C 5.101562 -6.046875 4.675781 -6.171875 4.1875 -6.171875 C 3.789062 -6.171875 3.414062 -6.070312 3.0625 -5.875 C 2.71875 -5.675781 2.4375 -5.378906 2.21875 -4.984375 C 2 -4.585938 1.890625 -4.09375 1.890625 -3.5 C 1.890625 -2.914062 2 -2.425781 2.21875 -2.03125 C 2.4375 -1.632812 2.71875 -1.332031 3.0625 -1.125 C 3.414062 -0.925781 3.789062 -0.828125 4.1875 -0.828125 C 4.675781 -0.828125 5.101562 -0.945312 5.46875 -1.1875 C 5.84375 -1.4375 6.078125 -1.78125 6.171875 -2.21875 L 7.375 -2.21875 C 7.238281 -1.507812 6.878906 -0.929688 6.296875 -0.484375 C 5.722656 -0.046875 5.023438 0.171875 4.203125 0.171875 Z M 4.203125 0.171875 "/></g></g></g><g fill="#1c273f" fill-opacity="1"><g transform="translate(67.493483, 35.641793)"><g><path d="M 0.96875 0 L 0.96875 -10.1875 L 2.15625 -10.1875 L 2.15625 -5.8125 C 2.394531 -6.25 2.726562 -6.585938 3.15625 -6.828125 C 3.59375 -7.066406 4.066406 -7.1875 4.578125 -7.1875 C 5.390625 -7.1875 6.039062 -6.929688 6.53125 -6.421875 C 7.019531 -5.921875 7.265625 -5.144531 7.265625 -4.09375 L 7.265625 0 L 6.09375 0 L 6.09375 -3.96875 C 6.09375 -5.4375 5.503906 -6.171875 4.328125 -6.171875 C 3.710938 -6.171875 3.195312 -5.945312 2.78125 -5.5 C 2.363281 -5.0625 2.15625 -4.441406 2.15625 -3.640625 L 2.15625 0 Z M 0.96875 0 "/></g></g></g><g fill="#1c273f" fill-opacity="1"><g transform="translate(75.582626, 35.641793)"><g><path d="M 4.03125 0 L 0.3125 -9.890625 L 1.59375 -9.890625 L 4.71875 -1.265625 L 7.875 -9.890625 L 9.140625 -9.890625 L 5.421875 0 Z M 4.03125 0 "/></g></g></g><g fill="#1c273f" fill-opacity="1"><g transform="translate(85.029389, 35.641793)"><g><path d="M 1.703125 -8.5625 C 1.460938 -8.5625 1.265625 -8.640625 1.109375 -8.796875 C 0.953125 -8.953125 0.875 -9.148438 0.875 -9.390625 C 0.875 -9.617188 0.953125 -9.804688 1.109375 -9.953125 C 1.265625 -10.109375 1.460938 -10.1875 1.703125 -10.1875 C 1.921875 -10.1875 2.109375 -10.109375 2.265625 -9.953125 C 2.429688 -9.804688 2.515625 -9.617188 2.515625 -9.390625 C 2.515625 -9.148438 2.429688 -8.953125 2.265625 -8.796875 C 2.109375 -8.640625 1.921875 -8.5625 1.703125 -8.5625 Z M 1.109375 0 L 1.109375 -7.015625 L 2.296875 -7.015625 L 2.296875 0 Z M 1.109375 0 "/></g></g></g><g fill="#1c273f" fill-opacity="1"><g transform="translate(88.409296, 35.641793)"><g><path d="M 3.65625 0.171875 C 2.820312 0.171875 2.125 -0.0390625 1.5625 -0.46875 C 1.007812 -0.894531 0.6875 -1.46875 0.59375 -2.1875 L 1.8125 -2.1875 C 1.882812 -1.820312 2.078125 -1.503906 2.390625 -1.234375 C 2.710938 -0.960938 3.140625 -0.828125 3.671875 -0.828125 C 4.171875 -0.828125 4.539062 -0.929688 4.78125 -1.140625 C 5.019531 -1.359375 5.140625 -1.613281 5.140625 -1.90625 C 5.140625 -2.332031 4.984375 -2.613281 4.671875 -2.75 C 4.367188 -2.894531 3.9375 -3.023438 3.375 -3.140625 C 3 -3.210938 2.625 -3.316406 2.25 -3.453125 C 1.875 -3.597656 1.554688 -3.800781 1.296875 -4.0625 C 1.046875 -4.320312 0.921875 -4.664062 0.921875 -5.09375 C 0.921875 -5.707031 1.148438 -6.207031 1.609375 -6.59375 C 2.066406 -6.988281 2.6875 -7.1875 3.46875 -7.1875 C 4.207031 -7.1875 4.816406 -7 5.296875 -6.625 C 5.773438 -6.25 6.050781 -5.71875 6.125 -5.03125 L 4.953125 -5.03125 C 4.898438 -5.394531 4.742188 -5.675781 4.484375 -5.875 C 4.222656 -6.070312 3.878906 -6.171875 3.453125 -6.171875 C 3.023438 -6.171875 2.695312 -6.082031 2.46875 -5.90625 C 2.238281 -5.726562 2.125 -5.492188 2.125 -5.203125 C 2.125 -4.921875 2.269531 -4.695312 2.5625 -4.53125 C 2.863281 -4.375 3.269531 -4.238281 3.78125 -4.125 C 4.207031 -4.03125 4.613281 -3.914062 5 -3.78125 C 5.394531 -3.644531 5.71875 -3.441406 5.96875 -3.171875 C 6.21875 -2.898438 6.34375 -2.515625 6.34375 -2.015625 C 6.351562 -1.378906 6.113281 -0.851562 5.625 -0.4375 C 5.144531 -0.03125 4.488281 0.171875 3.65625 0.171875 Z M 3.65625 0.171875 "/></g></g></g><g fill="#1c273f" fill-opacity="1"><g transform="translate(95.480228, 35.641793)"><g><path d="M 3.75 0 C 3.101562 0 2.597656 -0.15625 2.234375 -0.46875 C 1.867188 -0.78125 1.6875 -1.34375 1.6875 -2.15625 L 1.6875 -6.015625 L 0.46875 -6.015625 L 0.46875 -7.015625 L 1.6875 -7.015625 L 1.84375 -8.703125 L 2.875 -8.703125 L 2.875 -7.015625 L 4.9375 -7.015625 L 4.9375 -6.015625 L 2.875 -6.015625 L 2.875 -2.15625 C 2.875 -1.707031 2.960938 -1.40625 3.140625 -1.25 C 3.316406 -1.09375 3.632812 -1.015625 4.09375 -1.015625 L 4.828125 -1.015625 L 4.828125 0 Z M 3.75 0 "/></g></g></g><g fill="#1c273f" fill-opacity="1"><g transform="translate(100.95313, 35.641793)"><g><path d="M 3.3125 0.171875 C 2.726562 0.171875 2.238281 0.0703125 1.84375 -0.125 C 1.457031 -0.320312 1.171875 -0.582031 0.984375 -0.90625 C 0.796875 -1.238281 0.703125 -1.601562 0.703125 -2 C 0.703125 -2.707031 0.972656 -3.253906 1.515625 -3.640625 C 2.066406 -4.035156 2.816406 -4.234375 3.765625 -4.234375 L 5.65625 -4.234375 L 5.65625 -4.3125 C 5.65625 -4.925781 5.492188 -5.390625 5.171875 -5.703125 C 4.847656 -6.015625 4.421875 -6.171875 3.890625 -6.171875 C 3.429688 -6.171875 3.03125 -6.054688 2.6875 -5.828125 C 2.351562 -5.597656 2.144531 -5.265625 2.0625 -4.828125 L 0.84375 -4.828125 C 0.894531 -5.328125 1.066406 -5.75 1.359375 -6.09375 C 1.660156 -6.445312 2.03125 -6.71875 2.46875 -6.90625 C 2.914062 -7.09375 3.390625 -7.1875 3.890625 -7.1875 C 4.867188 -7.1875 5.601562 -6.921875 6.09375 -6.390625 C 6.59375 -5.867188 6.84375 -5.175781 6.84375 -4.3125 L 6.84375 0 L 5.78125 0 L 5.71875 -1.265625 C 5.519531 -0.867188 5.226562 -0.53125 4.84375 -0.25 C 4.457031 0.03125 3.945312 0.171875 3.3125 0.171875 Z M 3.5 -0.828125 C 3.945312 -0.828125 4.332031 -0.945312 4.65625 -1.1875 C 4.976562 -1.425781 5.222656 -1.734375 5.390625 -2.109375 C 5.566406 -2.484375 5.65625 -2.878906 5.65625 -3.296875 L 5.65625 -3.3125 L 3.859375 -3.3125 C 3.160156 -3.3125 2.664062 -3.191406 2.375 -2.953125 C 2.09375 -2.710938 1.953125 -2.410156 1.953125 -2.046875 C 1.953125 -1.679688 2.082031 -1.382812 2.34375 -1.15625 C 2.613281 -0.9375 3 -0.828125 3.5 -0.828125 Z M 3.5 -0.828125 "/></g></g></g><g fill="#1c273f" fill-opacity="1"><g transform="translate(108.603877, 35.641793)"><g><path d="M 0.96875 0 L 0.96875 -10.1875 L 2.15625 -10.1875 L 2.15625 0 Z M 0.96875 0 "/></g></g></g><g fill="#1c273f" fill-opacity="1"><g transform="translate(44.637043, 48.340475)"><g><path d="M 2.90625 -4.964844 C 2.808594 -5.203125 2.710938 -5.289062 2.503906 -5.289062 C 2.289062 -5.289062 2.164062 -5.136719 2.082031 -4.957031 L 0.207031 -0.503906 C 0.105469 -0.257812 0.238281 -0.0078125 0.519531 0 C 0.667969 0.0078125 0.792969 -0.0742188 0.851562 -0.214844 L 1.222656 -1.132812 L 3.785156 -1.132812 L 4.15625 -0.214844 C 4.214844 -0.0742188 4.34375 0.0078125 4.496094 0.0078125 C 4.773438 -0.0078125 4.898438 -0.289062 4.800781 -0.503906 Z M 2.503906 -4.304688 L 3.519531 -1.792969 L 1.488281 -1.792969 Z M 2.503906 -4.304688 "/></g></g></g><g fill="#1c273f" fill-opacity="1"><g transform="translate(49.642509, 48.340475)"><g><path d="M 3.066406 0.0664062 C 3.757812 0.0664062 4.378906 -0.148438 4.933594 -0.660156 C 5.074219 -0.800781 5.113281 -1 5 -1.15625 C 4.882812 -1.3125 4.652344 -1.296875 4.496094 -1.171875 C 4.089844 -0.808594 3.609375 -0.621094 3.066406 -0.621094 C 1.949219 -0.621094 1.117188 -1.542969 1.117188 -2.636719 C 1.117188 -3.816406 2 -4.675781 3.082031 -4.675781 C 3.609375 -4.675781 4.097656 -4.460938 4.496094 -4.097656 C 4.652344 -3.972656 4.882812 -3.957031 5.007812 -4.113281 C 5.113281 -4.261719 5.082031 -4.476562 4.933594 -4.609375 C 4.386719 -5.113281 3.777344 -5.351562 3.039062 -5.351562 C 1.519531 -5.351562 0.398438 -4.046875 0.398438 -2.636719 C 0.398438 -1.15625 1.601562 0.0664062 3.066406 0.0664062 Z M 3.066406 0.0664062 "/></g></g></g><g fill="#1c273f" fill-opacity="1"><g transform="translate(55.135301, 48.340475)"><g><path d="M 2.90625 -4.964844 C 2.808594 -5.203125 2.710938 -5.289062 2.503906 -5.289062 C 2.289062 -5.289062 2.164062 -5.136719 2.082031 -4.957031 L 0.207031 -0.503906 C 0.105469 -0.257812 0.238281 -0.0078125 0.519531 0 C 0.667969 0.0078125 0.792969 -0.0742188 0.851562 -0.214844 L 1.222656 -1.132812 L 3.785156 -1.132812 L 4.15625 -0.214844 C 4.214844 -0.0742188 4.34375 0.0078125 4.496094 0.0078125 C 4.773438 -0.0078125 4.898438 -0.289062 4.800781 -0.503906 Z M 2.503906 -4.304688 L 3.519531 -1.792969 L 1.488281 -1.792969 Z M 2.503906 -4.304688 "/></g></g></g><g fill="#1c273f" fill-opacity="1"><g transform="translate(60.140767, 48.340475)"><g><path d="M 1.007812 -5.289062 C 0.808594 -5.289062 0.644531 -5.136719 0.644531 -4.941406 L 0.644531 -0.355469 C 0.644531 -0.15625 0.808594 0 1.007812 0 L 2.488281 0 C 3.949219 0 5.164062 -1.179688 5.164062 -2.636719 C 5.164062 -4.089844 3.949219 -5.289062 2.488281 -5.289062 Z M 1.363281 -0.660156 L 1.363281 -4.625 L 2.503906 -4.625 C 3.660156 -4.625 4.445312 -3.691406 4.445312 -2.636719 C 4.445312 -1.570312 3.660156 -0.660156 2.496094 -0.660156 Z M 1.363281 -0.660156 "/></g></g></g><g fill="#1c273f" fill-opacity="1"><g transform="translate(65.699642, 48.340475)"><g><path d="M 4.015625 0 C 4.214844 0 4.371094 -0.15625 4.371094 -0.347656 C 4.371094 -0.496094 4.214844 -0.660156 4.015625 -0.660156 L 1.363281 -0.660156 L 1.363281 -2.339844 L 3.410156 -2.339844 C 3.609375 -2.339844 3.75 -2.496094 3.75 -2.683594 C 3.75 -2.859375 3.609375 -3 3.410156 -3 L 1.363281 -3 L 1.363281 -4.625 L 4.015625 -4.625 C 4.214844 -4.625 4.371094 -4.773438 4.371094 -4.933594 C 4.371094 -5.128906 4.214844 -5.289062 4.015625 -5.289062 L 1.007812 -5.289062 C 0.800781 -5.289062 0.644531 -5.128906 0.644531 -4.933594 L 0.644531 -0.363281 C 0.644531 -0.164062 0.800781 -0.015625 0.984375 0 Z M 4.015625 0 "/></g></g></g><g fill="#1c273f" fill-opacity="1"><g transform="translate(70.316894, 48.340475)"><g><path d="M 1.007812 0 C 1.207031 0 1.363281 -0.15625 1.363281 -0.355469 L 1.363281 -4.023438 L 2.925781 -2.097656 C 3.074219 -1.949219 3.246094 -1.949219 3.394531 -2.097656 L 4.949219 -4.023438 L 4.949219 -0.355469 C 4.949219 -0.15625 5.113281 0 5.304688 0 C 5.503906 0 5.667969 -0.15625 5.667969 -0.355469 L 5.667969 -4.941406 C 5.667969 -5.128906 5.511719 -5.289062 5.304688 -5.289062 C 5.238281 -5.289062 5.128906 -5.261719 5.046875 -5.1875 L 3.164062 -2.875 L 1.265625 -5.1875 C 1.191406 -5.261719 1.089844 -5.289062 1 -5.289062 C 0.816406 -5.289062 0.644531 -5.15625 0.644531 -4.941406 L 0.644531 -0.355469 C 0.644531 -0.15625 0.808594 0 1.007812 0 Z M 1.007812 0 "/></g></g></g><g fill="#1c273f" fill-opacity="1"><g transform="translate(76.62741, 48.340475)"><g><path d="M 2.253906 0 C 2.453125 0 2.617188 -0.15625 2.617188 -0.355469 L 2.617188 -1.851562 L 4.246094 -4.691406 C 4.386719 -4.882812 4.34375 -5.082031 4.214844 -5.203125 C 4.054688 -5.328125 3.839844 -5.3125 3.71875 -5.171875 L 2.253906 -2.503906 L 0.792969 -5.164062 C 0.675781 -5.320312 0.4375 -5.328125 0.289062 -5.195312 C 0.140625 -5.054688 0.132812 -4.832031 0.257812 -4.683594 L 1.910156 -1.851562 L 1.910156 -0.355469 C 1.910156 -0.15625 2.066406 0 2.253906 0 Z M 2.253906 0 "/></g></g></g></svg>